<svg width="30" height="30" viewBox="0 0 30 30" fill="none" xmlns="http://www.w3.org/2000/svg">
<g clip-path="url(#clip0_124_1543)">
<path d="M0 21.59V7.65C0 3.44 3.44 0 7.65 0H21.59C25.8 0 29.24 3.44 29.24 7.65V21.59C29.24 25.8 25.8 29.24 21.59 29.24H16.9L14.45 28.64L12.34 29.24H7.65C3.44 29.24 0 25.8 0 21.59Z" fill="white"/>
<path d="M20.31 19.3299L20.96 15.0999H16.9V12.3599C16.9 11.1999 17.47 10.0799 19.28 10.0799H21.12V6.47994C21.12 6.47994 19.45 6.18994 17.85 6.18994C14.51 6.18994 12.33 8.20994 12.33 11.8799V15.0999H8.62V19.3299H12.33V29.2399H16.9V19.3299H20.31Z" fill="#0D2242"/>
</g>
<defs>
<clipPath id="clip0_124_1543">
<rect width="29.24" height="29.24" fill="white"/>
</clipPath>
</defs>
</svg>
