<svg width="30" height="30" viewBox="0 0 30 30" fill="none" xmlns="http://www.w3.org/2000/svg">
<g clip-path="url(#clip0_124_1546)">
<path d="M29.24 21.59V7.65C29.24 3.42502 25.815 0 21.59 0L7.64999 0C3.42501 0 -9.53674e-06 3.42502 -9.53674e-06 7.65V21.59C-9.53674e-06 25.815 3.42501 29.24 7.64999 29.24H21.59C25.815 29.24 29.24 25.815 29.24 21.59Z" fill="white"/>
<path d="M19.16 9.10986C18.61 9.10986 18.16 9.55986 18.16 10.1199C18.16 10.6799 18.61 11.1299 19.16 11.1299C19.71 11.1299 20.17 10.6799 20.17 10.1199C20.17 9.55986 19.72 9.10986 19.16 9.10986Z" fill="#0D2242"/>
<path d="M14.69 10.3999C12.36 10.3999 10.47 12.2899 10.47 14.6199C10.47 16.9499 12.36 18.8399 14.69 18.8399C17.02 18.8399 18.91 16.9499 18.91 14.6199C18.91 12.2899 17.02 10.3999 14.69 10.3999ZM14.69 17.3299C13.2 17.3299 11.99 16.1199 11.99 14.6299C11.99 13.1399 13.2 11.9299 14.69 11.9299C16.18 11.9299 17.39 13.1399 17.39 14.6299C17.39 16.1199 16.18 17.3299 14.69 17.3299Z" fill="#0D2242"/>
<path d="M18.04 23.1898H11.2C8.35999 23.1898 6.04999 20.8798 6.04999 18.0398V11.1998C6.04999 8.3598 8.35999 6.0498 11.2 6.0498H18.04C20.88 6.0498 23.19 8.3598 23.19 11.1998V18.0398C23.19 20.8798 20.88 23.1898 18.04 23.1898ZM11.2 7.6598C9.24999 7.6598 7.65999 9.2498 7.65999 11.1998V18.0398C7.65999 19.9898 9.24999 21.5798 11.2 21.5798H18.04C19.99 21.5798 21.58 19.9898 21.58 18.0398V11.1998C21.58 9.2498 19.99 7.6598 18.04 7.6598H11.2Z" fill="#0D2242"/>
</g>
<defs>
<clipPath id="clip0_124_1546">
<rect width="29.24" height="29.24" fill="white"/>
</clipPath>
</defs>
</svg>
