<svg width="30" height="30" viewBox="0 0 30 30" fill="none" xmlns="http://www.w3.org/2000/svg">
<g clip-path="url(#clip0_124_1558)">
<path d="M29.24 21.59V7.65C29.24 3.42502 25.815 0 21.59 0L7.64999 0C3.42501 0 -9.53674e-06 3.42502 -9.53674e-06 7.65V21.59C-9.53674e-06 25.815 3.42501 29.24 7.64999 29.24H21.59C25.815 29.24 29.24 25.815 29.24 21.59Z" fill="white"/>
<path d="M8.49002 11.8999H11.32V20.9999H8.49002V11.8999ZM9.91002 7.37988C10.82 7.37988 11.55 8.10988 11.55 9.01988C11.55 9.92988 10.82 10.6599 9.91002 10.6599C9.00002 10.6599 8.27002 9.91988 8.27002 9.01988C8.27002 8.11988 9.00002 7.37988 9.91002 7.37988Z" fill="#0D2242"/>
<path d="M13.1 11.8999H15.81V13.1399H15.85C16.23 12.4199 17.15 11.6699 18.53 11.6699C21.39 11.6699 21.92 13.5499 21.92 15.9999V20.9899H19.09V16.5699C19.09 15.5099 19.07 14.1599 17.62 14.1599C16.17 14.1599 15.92 15.3099 15.92 16.4999V20.9999H13.09V11.8999H13.1Z" fill="#0D2242"/>
</g>
<defs>
<clipPath id="clip0_124_1558">
<rect width="29.24" height="29.24" fill="white"/>
</clipPath>
</defs>
</svg>
