<?xml version="1.0" encoding="utf-8"?>
<!-- Generator: Adobe Illustrator 16.0.0, SVG Export Plug-In . SVG Version: 6.00 Build 0)  -->
<!DOCTYPE svg PUBLIC "-//W3C//DTD SVG 1.1//EN" "http://www.w3.org/Graphics/SVG/1.1/DTD/svg11.dtd">
<svg version="1.1" id="Capa_1" xmlns="http://www.w3.org/2000/svg" xmlns:xlink="http://www.w3.org/1999/xlink" x="0px" y="0px"
	 width="360px" height="240px" viewBox="0 0 360 240" enable-background="new 0 0 360 240" xml:space="preserve">
<g>
	<g>
		<defs>
			<rect id="SVGID_1_" x="2.5" y="363.722" width="355" height="223.077"/>
		</defs>
		<clipPath id="SVGID_2_">
			<use xlink:href="#SVGID_1_"  overflow="visible"/>
		</clipPath>
		<path clip-path="url(#SVGID_2_)" fill="#746F71" d="M25.662,379.263l-4.347,17.773h10.823l-4.054-17.773H25.662z M17.784,412.244
			h-7.549l10.786-39.76h12.839l10.417,39.76h-8.652l-2.068-8.963H19.894L17.784,412.244z"/>
		<g clip-path="url(#SVGID_2_)">
			<defs>
				<rect id="SVGID_3_" x="2.5" y="363.722" width="355" height="223.077"/>
			</defs>
			<clipPath id="SVGID_4_">
				<use xlink:href="#SVGID_3_"  overflow="visible"/>
			</clipPath>
			<path clip-path="url(#SVGID_4_)" fill="#746F71" d="M65.179,392.57c0-3.408-2.891-4.297-5.127-4.297
				c-2.229,0-5.165,0.889-5.165,4.297c0,3.641,2.762,4.545,5.165,4.545C62.405,397.115,65.179,396.211,65.179,392.57
				 M58.925,410.598c-2.7,0.228-4.407,1.751-4.407,4.225c0,2.529,2.295,4.382,5.411,4.382c3.484,0,5.772-1.786,5.772-4.784
				C65.701,411.876,63.464,410.954,58.925,410.598 M74.671,383.383l-0.133,5.713c-1.354-0.046-3.458-0.354-5.411-0.992
				c1.291,1.176,2.641,2.641,2.888,4.529c0,7.06-7.019,9.908-11.89,9.908c-1.134,0-2.477-0.246-3.731-0.55
				c-0.876,0.304-1.405,0.833-1.405,1.597c0,3.116,18.313-0.537,18.313,10.297c0,6.785-6.481,10.485-13.713,10.485
				c-6.07,0-12.207-2.656-12.207-7.953c0-3.704,2.951-5.638,7.666-6.364c-3.59-0.414-7.181-1.519-7.181-4.889
				c0-2.398,2.237-4.174,5.482-4.409c-2.889-1.587-5.188-4.014-5.188-8.122c0-7.653,7.243-9.835,11.89-9.835
				C63.189,382.798,69.645,383.341,74.671,383.383"/>
			<path clip-path="url(#SVGID_4_)" fill="#746F71" d="M91.681,388.459c-3.83,0-5.43,3.466-5.43,6.874h10.55
				C96.801,391.636,95.676,388.459,91.681,388.459 M86.251,399.878c0,4.591,2.604,7.118,7.438,7.118c2.943,0,5.938-1.12,8.461-2.421
				l1.487,5.417c-2.429,1.317-6.358,2.819-10.897,2.819c-8.895,0-14.204-5.516-14.204-15.067c0-8.884,4.308-14.95,13.549-14.95
				c8.718,0,12.132,6.482,12.132,13.714v3.37H86.251z"/>
			<path clip-path="url(#SVGID_4_)" fill="#746F71" d="M127.959,412.244v-17.152c0-4.343-1.662-6.398-5.193-6.398
				c-1.998,0-3.716,0.881-5.063,1.764v21.787H110v-28.863h5.291l1.185,3.3c1.64-1.946,4.833-3.887,9.123-3.887
				c7.298,0,10.197,4.297,10.197,11.604v17.846H127.959z"/>
			<path clip-path="url(#SVGID_4_)" fill="#746F71" d="M165.041,410.3c-1.641,0.858-5.534,2.518-9.874,2.518
				c-8.594,0-13.78-4.872-13.78-15.013c0-9.426,5.186-15.011,13.713-15.011c3.833,0,7.122,0.774,9.882,2.36l-1.983,5.238
				c-2.072-1.228-4.708-1.766-7.254-1.766c-3.999,0-6.526,2.717-6.526,9.178c0,6.539,2.411,9.188,6.589,9.188
				c2.995,0,5.952-1.114,7.829-2.182L165.041,410.3z"/>
			<path clip-path="url(#SVGID_4_)" fill="#746F71" d="M172.288,371.609h7.769v7.013h-7.769V371.609z M172.531,412.244V388.93
				l-3.348-0.689v-4.859h11v28.863H172.531z"/>
			<path clip-path="url(#SVGID_4_)" fill="#746F71" d="M202.792,399.646h-4.769c-3.171,0-4.65,1.525-4.65,3.701
				c0,2.664,1.421,4.245,4.298,4.245c1.831,0,3.707-0.826,5.121-1.961V399.646z M204.984,412.244l-1.071-3.424
				c-1.468,2.005-4.338,3.997-8.413,3.997c-5.775,0-9.661-3.706-9.661-9.229c0-5.363,3.944-8.538,10.897-8.538h6.056v-1.482
				c0-3.71-2.112-4.876-5.056-4.876c-3.416,0-6.301,0.883-8.674,1.94l-1.921-5.478c2.893-1.23,6.821-2.36,11.342-2.36
				c8.199,0,11.717,3.789,11.717,11.126v18.324H204.984z"/>
			<path clip-path="url(#SVGID_4_)" fill="#746F71" d="M247.844,389.993c-1.181-0.717-2.99-1.417-5.249-1.417
				c-3.642,0-5.944,2.46-5.944,9.165c0,6.9,2.185,9.503,5.849,9.503c1.931,0,3.863-0.952,5.345-2.478V389.993z M248.563,385.632
				c-0.479-1.655-0.719-3.125-0.719-5.313v-8.709h7.655v40.637h-6.231l-0.897-3.183c-1.17,1.762-3.94,3.754-7.645,3.754
				c-6.533,0-11.775-4.699-11.775-15.009c0-9.535,5.419-15.012,12.415-15.012C244.485,382.797,246.965,383.864,248.563,385.632"/>
			<path clip-path="url(#SVGID_4_)" fill="#746F71" d="M274.46,388.459c-3.826,0-5.415,3.466-5.415,6.874h10.55
				C279.595,391.636,278.47,388.459,274.46,388.459 M269.045,399.878c0,4.591,2.581,7.118,7.415,7.118
				c2.943,0,5.946-1.12,8.476-2.421l1.48,5.417c-2.411,1.317-6.358,2.819-10.89,2.819c-8.888,0-14.178-5.516-14.178-15.067
				c0-8.884,4.282-14.95,13.545-14.95c8.692,0,12.117,6.482,12.117,13.714v3.37H269.045z"/>
			<path clip-path="url(#SVGID_4_)" fill="#746F71" d="M29.252,475.92c-11.179,0-17.193-7.426-17.193-20.654
				c0-12.369,5.944-20.255,17.193-20.255c5.423,0,10.309,1.169,13.546,3.339l-2.936,6.246c-2.074-1.589-5.673-2.78-9.778-2.78
				c-6.603,0-9.895,4.666-9.895,13.397c0,9.161,3.292,13.876,9.771,13.876c3.899,0,7.783-1.648,10.474-3.643l2.482,6.243
				C38.972,474.396,34.491,475.92,29.252,475.92"/>
			<path clip-path="url(#SVGID_4_)" fill="#746F71" d="M63.759,462.73h-4.768c-3.178,0-4.642,1.524-4.642,3.691
				c0,2.669,1.398,4.268,4.296,4.268c1.826,0,3.702-0.84,5.114-1.943V462.73z M65.952,475.332l-1.075-3.409
				c-1.464,1.992-4.362,4.001-8.419,4.001c-5.765,0-9.653-3.699-9.653-9.243c0-5.359,3.947-8.538,10.899-8.538h6.056v-1.468
				c0-3.701-2.116-4.903-5.069-4.903c-3.415,0-6.292,0.896-8.646,1.962l-1.942-5.479c2.876-1.251,6.827-2.36,11.352-2.36
				c8.189,0,11.729,3.771,11.729,11.126v18.312H65.952z"/>
			<path clip-path="url(#SVGID_4_)" fill="#746F71" d="M77.966,467.684v-32.972h7.593v32.543c0,2.426,1.471,2.769,4.646,2.769v5.433
				c0,0-2.233,0.468-4.226,0.468C80.082,475.924,77.966,472.813,77.966,467.684"/>
			<path clip-path="url(#SVGID_4_)" fill="#746F71" d="M97.33,434.706h7.778v7.006H97.33V434.706z M97.559,475.332v-23.307
				l-3.341-0.714v-4.83h11.007v28.851H97.559z"/>
			<path clip-path="url(#SVGID_4_)" fill="#746F71" d="M130.188,453.083c-1.184-0.705-3.001-1.413-5.234-1.413
				c-3.646,0-5.957,2.467-5.957,9.176c0,6.893,2.185,9.478,5.834,9.478c1.951,0,3.885-0.931,5.356-2.467V453.083z M130.888,448.716
				c-0.467-1.648-0.699-3.108-0.699-5.294v-8.716h7.652v40.626h-6.239l-0.883-3.18c-1.178,1.761-3.937,3.768-7.66,3.768
				c-6.525,0-11.764-4.711-11.764-15.013c0-9.535,5.407-15.015,12.426-15.015C126.827,445.893,129.298,446.941,130.888,448.716"/>
			<path clip-path="url(#SVGID_4_)" fill="#746F71" d="M160.405,462.73h-4.774c-3.172,0-4.643,1.524-4.643,3.691
				c0,2.669,1.398,4.268,4.283,4.268c1.839,0,3.722-0.84,5.135-1.943V462.73z M162.59,475.332l-1.066-3.409
				c-1.487,1.992-4.371,4.001-8.432,4.001c-5.753,0-9.653-3.699-9.653-9.243c0-5.359,3.943-8.538,10.904-8.538h6.062v-1.468
				c0-3.701-2.114-4.903-5.069-4.903c-3.421,0-6.298,0.896-8.66,1.962l-1.935-5.479c2.877-1.251,6.827-2.36,11.36-2.36
				c8.177,0,11.712,3.771,11.712,11.126v18.312H162.59z"/>
			<path clip-path="url(#SVGID_4_)" fill="#746F71" d="M192.509,453.083c-1.191-0.705-3.02-1.413-5.248-1.413
				c-3.654,0-5.957,2.467-5.957,9.176c0,6.893,2.167,9.478,5.823,9.478c1.936,0,3.885-0.931,5.382-2.467V453.083z M193.204,448.716
				c-0.471-1.648-0.695-3.108-0.695-5.294v-8.716h7.642v40.626h-6.239l-0.89-3.18c-1.186,1.761-3.959,3.768-7.653,3.768
				c-6.528,0-11.778-4.711-11.778-15.013c0-9.535,5.415-15.015,12.427-15.015C189.129,445.893,191.607,446.941,193.204,448.716"/>
			<path clip-path="url(#SVGID_4_)" fill="#746F71" d="M238.012,453.083c-1.186-0.705-3.01-1.413-5.231-1.413
				c-3.664,0-5.952,2.467-5.952,9.176c0,6.893,2.171,9.478,5.813,9.478c1.949,0,3.899-0.931,5.371-2.467V453.083z M238.717,448.716
				c-0.467-1.648-0.705-3.108-0.705-5.294v-8.716h7.651v40.626h-6.232l-0.89-3.18c-1.182,1.761-3.951,3.768-7.651,3.768
				c-6.523,0-11.78-4.711-11.78-15.013c0-9.535,5.411-15.015,12.423-15.015C234.655,445.893,237.128,446.941,238.717,448.716"/>
			<path clip-path="url(#SVGID_4_)" fill="#746F71" d="M264.631,451.562c-3.827,0-5.432,3.463-5.432,6.874h10.551
				C269.75,454.734,268.647,451.562,264.631,451.562 M259.199,462.952c0,4.603,2.612,7.137,7.439,7.137
				c2.929,0,5.941-1.116,8.476-2.409l1.465,5.417c-2.414,1.3-6.351,2.827-10.879,2.827c-8.892,0-14.196-5.533-14.196-15.078
				c0-8.883,4.305-14.951,13.546-14.951c8.71,0,12.117,6.483,12.117,13.716v3.342H259.199z"/>
			<path clip-path="url(#SVGID_4_)" fill="#746F71" d="M296.023,467.684v-32.972h7.589v32.543c0,2.426,1.473,2.769,4.647,2.769
				v5.433c0,0-2.223,0.468-4.235,0.468C298.15,475.924,296.023,472.813,296.023,467.684"/>
			<path clip-path="url(#SVGID_4_)" fill="#746F71" d="M328.878,462.73h-4.768c-3.197,0-4.653,1.524-4.653,3.691
				c0,2.669,1.42,4.268,4.282,4.268c1.847,0,3.727-0.84,5.139-1.943V462.73z M331.06,475.332l-1.059-3.409
				c-1.48,1.992-4.367,4.001-8.421,4.001c-5.769,0-9.643-3.699-9.643-9.243c0-5.359,3.933-8.538,10.875-8.538h6.065v-1.468
				c0-3.701-2.115-4.903-5.065-4.903c-3.406,0-6.305,0.896-8.652,1.962l-1.942-5.479c2.892-1.251,6.816-2.36,11.368-2.36
				c8.191,0,11.724,3.771,11.724,11.126v18.312H331.06z"/>
			<polygon clip-path="url(#SVGID_4_)" fill="#746F71" points="13.369,538.428 13.369,498.693 37.781,498.693 37.781,505.212 
				21.079,505.212 21.079,515.006 33.859,515.006 33.255,521.826 21.079,521.826 21.079,532.011 37.781,532.011 37.781,538.428 			
				"/>
			<path clip-path="url(#SVGID_4_)" fill="#746F71" d="M59.279,516.166c-1.156-0.698-2.995-1.421-5.225-1.421
				c-3.656,0-5.951,2.494-5.951,9.2c0,6.875,2.174,9.462,5.842,9.462c1.934,0,3.877-0.918,5.334-2.452V516.166z M59.993,511.82
				c-0.464-1.652-0.714-3.119-0.714-5.313v-8.713h7.659v40.633h-6.239l-0.875-3.18c-1.178,1.758-3.944,3.763-7.666,3.763
				c-6.534,0-11.772-4.703-11.772-15.009c0-9.539,5.416-15.015,12.427-15.015C55.938,508.987,58.403,510.034,59.993,511.82"/>
			<path clip-path="url(#SVGID_4_)" fill="#746F71" d="M94.02,538.428l-1.17-3.529c-1.346,1.771-4.407,4.112-9.005,4.112
				c-7.192,0-10.484-4.006-10.484-11.948v-17.484h7.674v17.542c0,4.416,1.581,6.013,5.054,6.013c1.987,0,3.819-0.774,5.172-1.709
				v-21.846h7.835v28.85H94.02z"/>
			<path clip-path="url(#SVGID_4_)" fill="#746F71" d="M128.482,536.486c-1.648,0.892-5.526,2.524-9.889,2.524
				c-8.585,0-13.777-4.887-13.777-15.009c0-9.427,5.191-15.015,13.704-15.015c3.83,0,7.133,0.764,9.91,2.35l-1.993,5.23
				c-2.083-1.218-4.717-1.759-7.25-1.759c-4.006,0-6.545,2.717-6.545,9.193c0,6.539,2.428,9.195,6.597,9.195
				c3.013,0,5.944-1.122,7.816-2.175L128.482,536.486z"/>
			<path clip-path="url(#SVGID_4_)" fill="#746F71" d="M149.222,525.818h-4.771c-3.186,0-4.661,1.537-4.661,3.711
				c0,2.657,1.413,4.257,4.305,4.257c1.824,0,3.708-0.833,5.127-1.95V525.818z M151.393,538.428l-1.066-3.423
				c-1.458,2-4.363,4.006-8.417,4.006c-5.769,0-9.657-3.706-9.657-9.242c0-5.351,3.947-8.525,10.896-8.525h6.074v-1.484
				c0-3.708-2.126-4.886-5.072-4.886c-3.418,0-6.309,0.887-8.649,1.936l-1.957-5.472c2.891-1.233,6.834-2.354,11.374-2.354
				c8.175,0,11.714,3.755,11.714,11.14v18.305H151.393z"/>
			<path clip-path="url(#SVGID_4_)" fill="#746F71" d="M186.312,536.486c-1.634,0.892-5.541,2.524-9.904,2.524
				c-8.582,0-13.78-4.887-13.78-15.009c0-9.427,5.198-15.015,13.729-15.015c3.827,0,7.122,0.764,9.895,2.35l-2.008,5.23
				c-2.053-1.218-4.709-1.759-7.224-1.759c-4.01,0-6.548,2.717-6.548,9.193c0,6.539,2.42,9.195,6.592,9.195
				c2.994,0,5.952-1.122,7.842-2.175L186.312,536.486z"/>
			<path clip-path="url(#SVGID_4_)" fill="#746F71" d="M193.562,497.795h7.758v7.014h-7.758V497.795z M193.778,538.428v-23.323
				l-3.354-0.704v-4.822h11.021v28.85H193.778z"/>
			<path clip-path="url(#SVGID_4_)" fill="#746F71" d="M226.475,523.947c0-6.944-2.067-9.368-5.658-9.368
				c-3.59,0-5.598,2.465-5.598,9.368c0,6.696,1.839,9.421,5.598,9.421C224.584,533.368,226.475,530.82,226.475,523.947
				 M213.694,505.116l-0.758-4.426l14.885-4.183l1,5.641L213.694,505.116z M234.369,523.947c0,9.839-4.943,15.063-13.553,15.063
				c-8.647,0-13.525-5.17-13.525-15.063c0-8.479,4.693-14.963,13.525-14.963C229.521,508.984,234.369,515.468,234.369,523.947"/>
			<path clip-path="url(#SVGID_4_)" fill="#746F71" d="M258.03,538.428v-17.126c0-4.364-1.655-6.429-5.18-6.429
				c-2,0-3.715,0.887-5.065,1.786v21.769h-7.7v-28.85h5.298l1.178,3.288c1.641-1.933,4.819-3.879,9.116-3.879
				c7.298,0,10.196,4.297,10.196,11.594v17.847H258.03z"/>
			<rect x="5.234" y="564.195" clip-path="url(#SVGID_4_)" fill="#1C56A3" width="147.225" height="14.717"/>
			<rect x="152.459" y="564.195" clip-path="url(#SVGID_4_)" fill="#E52A16" width="202.305" height="14.717"/>
		</g>
	</g>
</g>
<g>
	<g>
		<defs>
			<rect id="SVGID_5_" x="-55.606" y="19.114" width="471.211" height="201.772"/>
		</defs>
		<clipPath id="SVGID_6_">
			<use xlink:href="#SVGID_5_"  overflow="visible"/>
		</clipPath>
		<polyline clip-path="url(#SVGID_6_)" fill="#000E78" points="21.336,86.947 4.802,49.651 14.19,49.651 22.913,72.032 
			32.332,49.651 41.366,49.651 24.42,86.947 		"/>
		<g clip-path="url(#SVGID_6_)">
			<defs>
				<rect id="SVGID_7_" x="-55.606" y="19.114" width="471.211" height="201.772"/>
			</defs>
			<clipPath id="SVGID_8_">
				<use xlink:href="#SVGID_7_"  overflow="visible"/>
			</clipPath>
			<path clip-path="url(#SVGID_8_)" fill-rule="evenodd" clip-rule="evenodd" fill="#000E78" d="M53.086,64.13h17.936
				c-0.598-5.362-3.542-8.04-8.872-8.04C57.289,56.09,54.27,58.768,53.086,64.13 M78.915,70.56H52.743
				c0.167,2.926,1.16,5.191,3.011,6.813c1.842,1.603,4.343,2.425,7.453,2.425c3.906,0,6.876-1.006,8.909-3.009l3.318,6.512
				c-3.01,2.408-7.495,3.638-13.476,3.638c-5.589,0-9.988-1.639-13.234-4.91c-3.264-3.277-4.874-7.842-4.874-13.695
				c0-5.762,1.778-10.449,5.34-14.014c3.576-3.585,7.855-5.369,12.838-5.369c5.318,0,9.57,1.586,12.793,4.74
				c3.2,3.179,4.823,7.207,4.823,12.122C79.644,66.862,79.393,68.448,78.915,70.56"/>
			<path clip-path="url(#SVGID_8_)" fill-rule="evenodd" clip-rule="evenodd" fill="#000E78" d="M84.167,83.886l3.034-6.816
				c2.56,2.06,5.433,3.078,8.65,3.078c3.322,0,4.978-1.194,4.978-3.557c0-1.401-0.482-2.539-1.493-3.434
				c-1.01-0.893-2.956-1.933-5.854-3.145c-6.298-2.614-9.453-6.289-9.453-11.003c0-3.171,1.206-5.638,3.621-7.413
				c2.402-1.77,5.489-2.645,9.254-2.645c3.804,0,7.365,0.848,10.721,2.548l-2.451,6.609c-1.862-1.586-4.449-2.38-7.782-2.38
				c-2.982,0-4.476,1.194-4.476,3.561c0,0.94,0.489,1.788,1.479,2.534c0.967,0.751,3.066,1.766,6.281,3.04
				c3.21,1.27,5.516,2.793,6.922,4.589c1.422,1.796,2.129,3.983,2.129,6.531c0,3.412-1.26,6.068-3.773,8.023
				c-2.52,1.95-5.949,2.931-10.281,2.931c-2.421,0-4.388-0.211-5.859-0.62C88.357,85.932,86.459,85.111,84.167,83.886"/>
			<path clip-path="url(#SVGID_8_)" fill-rule="evenodd" clip-rule="evenodd" fill="#000E78" d="M124.428,58.615v19.235
				c1.552,1.252,3.355,1.876,5.436,1.876c3.945,0,6.787-0.941,8.52-2.815c1.715-1.889,2.562-4.849,2.562-8.907
				c0-4.321-0.834-7.369-2.562-9.126c-1.716-1.765-4.522-2.647-8.486-2.647C127.849,56.23,126.021,57.011,124.428,58.615
				 M124.428,85.322v15.253h-8.541V49.646h8.541v2.464c2.134-2.117,4.774-3.159,7.903-3.159c11.68,0,17.525,6.421,17.525,19.285
				c0,5.996-1.624,10.603-4.853,13.848c-3.219,3.233-7.633,4.854-13.219,4.854C129.091,86.939,126.637,86.397,124.428,85.322"/>
			<path clip-path="url(#SVGID_8_)" fill-rule="evenodd" clip-rule="evenodd" fill="#000E78" d="M180.997,86.231V83.16
				c-1.203,1.029-2.873,1.906-4.992,2.649c-2.124,0.751-4.071,1.129-5.848,1.129c-8.507,0-12.749-4.512-12.749-13.55V49.646h8.537
				v23.103c0,4.694,2.113,7.049,6.333,7.049c1.938,0,3.738-0.502,5.408-1.499c1.659-1.01,2.767-2.183,3.312-3.496V49.646h8.555
				v36.586"/>
			<path clip-path="url(#SVGID_8_)" fill-rule="evenodd" clip-rule="evenodd" fill="#000E78" d="M227.557,52.514l-3.654,6.372
				c-1.999-1.871-4.684-2.797-8.053-2.797c-3.231,0-5.789,1.08-7.686,3.232c-1.87,2.161-2.811,5.134-2.811,8.95
				c0,7.678,3.668,11.526,10.967,11.526c3.171,0,5.969-1.05,8.393-3.141l3.131,6.706c-2.477,1.56-4.65,2.538-6.513,2.951
				c-1.857,0.408-4.05,0.625-6.57,0.625c-5.656,0-10.115-1.657-13.396-4.947c-3.263-3.311-4.905-7.875-4.905-13.721
				c0-5.766,1.8-10.435,5.376-13.979c3.575-3.57,8.458-5.341,14.62-5.341C220.704,48.952,224.423,50.143,227.557,52.514"/>
			<path clip-path="url(#SVGID_8_)" fill-rule="evenodd" clip-rule="evenodd" fill="#000E78" d="M236.983,86.227V56.642h-4.694
				v-6.997h13.382v36.581 M241.394,35.456c1.366,0,2.539,0.479,3.507,1.458c0.976,0.961,1.472,2.139,1.472,3.504
				c0,1.38-0.496,2.53-1.472,3.518c-0.968,0.953-2.141,1.454-3.507,1.454s-2.528-0.501-3.514-1.454
				c-0.971-0.988-1.449-2.138-1.449-3.518c0-1.366,0.479-2.543,1.449-3.504C238.865,35.935,240.027,35.456,241.394,35.456"/>
			<path clip-path="url(#SVGID_8_)" fill-rule="evenodd" clip-rule="evenodd" fill="#000E78" d="M262.216,67.855
				c0,8.068,2.912,12.078,8.705,12.078c2.661,0,4.765-1.05,6.346-3.131c1.541-2.082,2.315-5.074,2.315-8.946
				c0-7.95-2.878-11.921-8.661-11.921c-2.67,0-4.788,1.05-6.352,3.141C262.993,61.179,262.216,64.097,262.216,67.855
				 M253.328,67.855c0-5.586,1.61-10.146,4.825-13.646c3.237-3.518,7.475-5.261,12.768-5.261c5.561,0,9.868,1.682,12.951,5.054
				c3.07,3.374,4.607,7.998,4.607,13.853c0,5.835-1.563,10.483-4.69,13.914c-3.127,3.443-7.418,5.178-12.868,5.178
				c-5.561,0-9.882-1.756-12.965-5.231C254.863,78.241,253.328,73.612,253.328,67.855"/>
			<path clip-path="url(#SVGID_8_)" fill-rule="evenodd" clip-rule="evenodd" fill="#F68A28" d="M16.044,36.712
				c-0.571-0.119-1.015-0.18-1.309-0.18c-2.749,0-4.094,0.896-4.094,2.706c0,1.343,0.769,2.021,2.311,2.021
				c2.069,0,3.092-1.046,3.092-3.146 M16.395,42.238c-0.317,0.523-0.857,0.961-1.638,1.281c-0.777,0.325-1.603,0.484-2.452,0.484
				c-1.602,0-2.844-0.395-3.762-1.19c-0.922-0.801-1.375-1.942-1.375-3.409c0-1.726,0.641-3.069,1.915-4.04
				c1.3-0.984,3.118-1.468,5.494-1.468c0.421,0,0.9,0.062,1.449,0.207c0-1.745-1.093-2.609-3.317-2.609
				c-1.289,0-2.382,0.22-3.257,0.646l-0.75-2.697C9.9,28.872,11.318,28.6,12.957,28.6c2.268,0,3.939,0.509,4.993,1.542
				c1.052,1.034,1.586,2.984,1.586,5.859v3.166c0,1.99,0.377,3.224,1.191,3.725l-0.958,0.948l-1.212,0.164l-1.343-0.554
				L16.395,42.238z"/>
			<path clip-path="url(#SVGID_8_)" fill-rule="evenodd" clip-rule="evenodd" fill="#F68A28" d="M32.856,43.725v-1.243
				c-0.496,0.409-1.166,0.778-2.022,1.077c-0.865,0.298-1.654,0.444-2.377,0.444c-3.449,0-5.182-1.828-5.182-5.481v-9.649h3.472
				v9.385c0,1.902,0.861,2.86,2.564,2.86c0.795,0,1.522-0.21,2.196-0.61c0.677-0.412,1.134-0.882,1.348-1.418V28.872h3.47v14.853"/>
			<path clip-path="url(#SVGID_8_)" fill-rule="evenodd" clip-rule="evenodd" fill="#F68A28" d="M40.622,31.666h-1.751v-2.793h1.751
				v-3.009l3.46-1.282v4.291h4.095v2.793h-4.095v6.508c0,1.063,0.171,1.814,0.512,2.249c0.317,0.438,0.916,0.659,1.743,0.659
				c0.837,0,1.632-0.228,2.341-0.667v3.169c-0.792,0.291-1.939,0.418-3.437,0.418c-1.488,0-2.62-0.418-3.437-1.243
				c-0.794-0.834-1.183-2.042-1.183-3.584"/>
			<path clip-path="url(#SVGID_8_)" fill-rule="evenodd" clip-rule="evenodd" fill="#F68A28" d="M54.024,36.272
				c0,3.259,1.18,4.897,3.528,4.897c1.096,0,1.941-0.422,2.578-1.27c0.624-0.847,0.944-2.063,0.944-3.627
				c0-3.228-1.173-4.853-3.522-4.853c-1.066,0-1.928,0.44-2.565,1.297C54.346,33.555,54.024,34.736,54.024,36.272 M50.419,36.272
				c0-2.274,0.641-4.128,1.96-5.551c1.316-1.409,3.035-2.126,5.173-2.126c2.267,0,4.01,0.672,5.27,2.047
				c1.241,1.369,1.875,3.246,1.875,5.63c0,2.376-0.654,4.252-1.906,5.64C61.52,43.316,59.763,44,57.552,44
				c-2.236,0-3.993-0.691-5.258-2.101C51.049,40.48,50.419,38.604,50.419,36.272"/>
			<path clip-path="url(#SVGID_8_)" fill-rule="evenodd" clip-rule="evenodd" fill="#F68A28" d="M70.684,32.509v7.818
				c0.623,0.513,1.357,0.75,2.201,0.75c1.616,0,2.764-0.377,3.456-1.145c0.698-0.756,1.045-1.955,1.045-3.603
				c0-1.77-0.347-3.003-1.039-3.72c-0.692-0.712-1.83-1.068-3.441-1.068C72.063,31.542,71.333,31.863,70.684,32.509 M70.684,43.361
				v6.188h-3.475V28.872h3.475v0.997c0.856-0.866,1.942-1.273,3.202-1.273c4.748,0,7.124,2.608,7.124,7.822
				c0,2.433-0.662,4.308-1.973,5.613c-1.304,1.33-3.108,1.968-5.367,1.968C72.59,43.999,71.586,43.796,70.684,43.361"/>
			<path clip-path="url(#SVGID_8_)" fill-rule="evenodd" clip-rule="evenodd" fill="#F68A28" d="M84.971,43.725V31.714h-1.898
				v-2.842h5.425v14.853 M86.767,23.119c0.571,0,1.028,0.185,1.441,0.584c0.376,0.4,0.584,0.861,0.584,1.424
				c0,0.552-0.208,1.037-0.584,1.432c-0.413,0.391-0.87,0.579-1.441,0.579c-0.562,0-1.03-0.188-1.422-0.579
				c-0.389-0.396-0.604-0.88-0.604-1.432c0-0.563,0.216-1.023,0.604-1.424C85.737,23.304,86.205,23.119,86.767,23.119"/>
			<path clip-path="url(#SVGID_8_)" fill-rule="evenodd" clip-rule="evenodd" fill="#F68A28" d="M91.667,42.769l1.235-2.763
				c1.025,0.835,2.2,1.253,3.506,1.253c1.338,0,2.022-0.498,2.022-1.458c0-0.558-0.211-1.012-0.597-1.384
				c-0.417-0.355-1.208-0.783-2.381-1.277c-2.556-1.068-3.843-2.554-3.843-4.472c0-1.282,0.484-2.284,1.476-3
				c0.971-0.72,2.227-1.07,3.756-1.07c1.531,0,2.99,0.346,4.356,1.036l-1.006,2.674c-0.759-0.632-1.809-0.961-3.158-0.961
				c-1.216,0-1.813,0.483-1.813,1.436l0.597,1.037c0.399,0.302,1.256,0.72,2.555,1.229c1.296,0.515,2.231,1.144,2.812,1.873
				c0.566,0.733,0.852,1.62,0.852,2.639c0,1.388-0.511,2.473-1.528,3.264c-1.015,0.789-2.417,1.177-4.168,1.177
				c-0.983,0-1.783-0.071-2.375-0.246C93.371,43.611,92.59,43.268,91.667,42.769"/>
			<path clip-path="url(#SVGID_8_)" fill-rule="evenodd" clip-rule="evenodd" fill="#F68A28" d="M105.34,31.666h-1.734v-2.793h1.734
				v-3.009l3.479-1.282v4.291h4.077v2.793h-4.077v6.508c0,1.063,0.154,1.814,0.494,2.249c0.328,0.438,0.916,0.659,1.763,0.659
				c0.837,0,1.603-0.228,2.336-0.667v3.169c-0.812,0.291-1.958,0.418-3.451,0.418c-1.494,0-2.636-0.418-3.418-1.243
				c-0.812-0.834-1.203-2.042-1.203-3.584"/>
			<path clip-path="url(#SVGID_8_)" fill-rule="evenodd" clip-rule="evenodd" fill="#F68A28" d="M124.037,36.712
				c-0.601-0.119-1.036-0.18-1.326-0.18c-2.735,0-4.097,0.895-4.097,2.706c0,1.343,0.767,2.021,2.305,2.021
				c2.083,0,3.119-1.046,3.119-3.146 M124.375,42.238c-0.307,0.523-0.861,0.961-1.636,1.281c-0.789,0.325-1.592,0.484-2.449,0.484
				c-1.611,0-2.864-0.395-3.773-1.19c-0.927-0.801-1.378-1.942-1.378-3.409c0-1.726,0.645-3.069,1.941-4.04
				c1.274-0.984,3.107-1.468,5.477-1.468c0.42,0,0.899,0.062,1.453,0.207c0-1.745-1.112-2.609-3.311-2.609
				c-1.309,0-2.394,0.22-3.273,0.646l-0.759-2.697c1.203-0.571,2.614-0.844,4.273-0.844c2.266,0,3.925,0.509,4.991,1.542
				c1.045,1.032,1.567,2.984,1.567,5.859v3.166c0,1.99,0.399,3.224,1.188,3.725l-0.95,0.948l-1.209,0.164l-1.335-0.554
				L124.375,42.238z"/>
			<path clip-path="url(#SVGID_8_)" fill-rule="evenodd" clip-rule="evenodd" fill="#000E78" d="M63.626,172.336V131.2
				c0-6.069-1.362-10.514-4.122-13.294c-2.754-2.798-7.245-4.195-13.468-4.195c-2.868,0-5.954,0.69-9.219,2.072
				c-3.281,1.371-5.823,3.075-7.664,5.118v51.435H9.5v-71.125h14.147l3.617,6.642c5.339-5.354,13.217-8.003,23.651-8.003
				c9.997,0,17.89,2.525,23.682,7.602c5.793,5.072,8.679,12.153,8.679,21.232v43.652"/>
			<path clip-path="url(#SVGID_8_)" fill-rule="evenodd" clip-rule="evenodd" fill="#000E78" d="M216.693,116.71
				c-3.496-2.001-7.369-2.99-11.568-2.99c-4.561,0-8.612,1.739-12.16,5.244c-3.536,3.509-5.297,7.778-5.297,12.833v40.532h-19.652
				v-71.118h19.652v6.521c5.511-5.256,12.824-7.882,21.941-7.882c6.71,0,11.854,0.87,15.42,2.597"/>
			<path clip-path="url(#SVGID_8_)" fill-rule="evenodd" clip-rule="evenodd" fill="#000E78" d="M225.684,114.537h-9.818v-13.326
				h9.818V86.763l19.662-6.092v20.541h23.19v13.326h-23.19v31.179c0,5.094,0.948,8.714,2.838,10.816
				c1.906,2.104,5.223,3.154,9.97,3.154c4.751,0,9.166-1.085,13.285-3.252v15.268c-4.572,1.326-11.098,1.99-19.565,1.99
				c-8.41,0-14.875-2.007-19.401-6.013c-4.512-4.02-6.788-9.719-6.788-17.111"/>
			<path clip-path="url(#SVGID_8_)" fill-rule="evenodd" clip-rule="evenodd" fill="#000E78" d="M288.616,129.364h41.234
				c-1.36-10.426-8.15-15.645-20.382-15.645C298.271,113.72,291.325,118.938,288.616,129.364 M347.994,141.867h-60.186
				c0.364,5.684,2.674,10.081,6.921,13.238c4.253,3.141,9.97,4.716,17.163,4.716c8.973,0,15.799-1.944,20.476-5.841l7.629,12.632
				c-6.917,4.717-17.243,7.079-30.977,7.079c-12.834,0-22.991-3.18-30.462-9.535c-7.484-6.351-11.218-15.23-11.218-26.633
				c0-11.194,4.098-20.291,12.312-27.244c8.197-6.951,18.042-10.43,29.526-10.43c12.201,0,22.008,3.083,29.396,9.227
				c7.387,6.176,11.09,14.024,11.09,23.55C349.664,134.671,349.119,137.74,347.994,141.867"/>
			<path clip-path="url(#SVGID_8_)" fill-rule="evenodd" clip-rule="evenodd" fill="#000E78" d="M98.292,137.001
				c0-16.285,12.861-29.5,28.726-29.5c15.852,0,28.72,13.215,28.72,29.5c0,16.291-12.868,29.515-28.72,29.515
				C111.153,166.516,98.292,153.292,98.292,137.001"/>
			<path clip-path="url(#SVGID_8_)" fill="#312B6F" d="M98.292,137.001h4.093c0-7.057,2.773-13.408,7.256-18.002
				c4.479-4.606,10.593-7.414,17.377-7.414c6.778,0,12.891,2.808,17.375,7.406c4.474,4.602,7.251,10.953,7.251,18.01
				c0,7.067-2.777,13.414-7.251,18.021c-4.485,4.595-10.597,7.409-17.375,7.409c-6.785,0-12.898-2.814-17.377-7.409
				c-4.482-4.607-7.256-10.954-7.256-18.021h-8.19c0,9.229,3.657,17.634,9.575,23.718c5.919,6.086,14.167,9.881,23.249,9.881
				c9.077,0,17.327-3.795,23.243-9.881c5.916-6.084,9.57-14.489,9.57-23.718c0-9.227-3.654-17.623-9.576-23.703
				c-5.91-6.087-14.16-9.877-23.237-9.877c-9.082,0-17.33,3.791-23.249,9.877c-5.912,6.08-9.575,14.476-9.575,23.703"/>
			<path clip-path="url(#SVGID_8_)" fill-rule="evenodd" clip-rule="evenodd" fill="#000E78" d="M105.562,136.598
				c0,15.662,6.683,23.506,20.031,23.506c6.12,0,10.961-2.043,14.538-6.11c3.596-4.066,5.379-9.872,5.379-17.396
				c0-15.446-6.626-23.156-19.917-23.156c-6.137,0-11.003,2.038-14.622,6.115C107.367,123.618,105.562,129.307,105.562,136.598
				 M85.111,136.598c0-10.849,3.699-19.694,11.112-26.519c7.416-6.816,17.209-10.229,29.37-10.229
				c12.762,0,22.703,3.271,29.768,9.837c7.075,6.558,10.615,15.525,10.615,26.91c0,11.336-3.593,20.364-10.806,27.06
				c-7.201,6.684-17.074,10.035-29.577,10.035c-12.801,0-22.729-3.386-29.831-10.133C88.647,156.806,85.111,147.803,85.111,136.598"
				/>
			<path clip-path="url(#SVGID_8_)" fill-rule="evenodd" clip-rule="evenodd" fill="#000E78" d="M349.443,164.93
				c0.765,0,1.34,0.075,1.692,0.225c0.645,0.271,0.966,0.777,0.966,1.563c0,0.544-0.202,0.952-0.603,1.217l-0.913,0.298l1.063,0.618
				l0.348,0.958v0.445l0.021,0.455l0.058,0.325l0.026,0.079h-1.033v-0.062l-0.022-0.065l-0.008-0.207v-0.482
				c0-0.72-0.21-1.191-0.589-1.423c-0.241-0.128-0.628-0.202-1.225-0.202h-0.857v2.441h-1.097v-6.184 M350.612,165.905
				c-0.268-0.159-0.716-0.229-1.313-0.229h-0.932v2.254h0.989l1.032-0.146l0.649-0.975L350.612,165.905z M353.55,172.031
				c-1.093,1.11-2.438,1.66-3.982,1.66c-1.582,0-2.903-0.549-4.01-1.66c-1.081-1.088-1.639-2.423-1.639-3.987
				c0-1.555,0.558-2.877,1.652-3.975c1.102-1.09,2.419-1.647,3.996-1.647c1.545,0,2.89,0.558,3.982,1.647
				c1.106,1.085,1.647,2.41,1.647,3.975C355.197,169.594,354.656,170.937,353.55,172.031 M346.128,164.605
				c-0.936,0.947-1.419,2.1-1.419,3.438c0,1.343,0.457,2.494,1.41,3.456c0.937,0.948,2.092,1.415,3.448,1.415
				c1.335,0,2.473-0.467,3.434-1.415c0.932-0.962,1.402-2.113,1.402-3.456c0-1.34-0.471-2.491-1.402-3.438
				c-0.961-0.954-2.099-1.424-3.434-1.424C348.211,163.182,347.068,163.651,346.128,164.605"/>
			<path clip-path="url(#SVGID_8_)" fill="#F68A28" d="M137.841,136.19l-4.869-4.877v25.829c0,3.4-2.751,6.136-6.155,6.136
				c-3.386,0-6.145-2.735-6.145-6.136v-25.815l-5.178,5.174c-2.397,2.385-6.289,2.385-8.687-0.01c-2.41-2.401-2.41-6.283,0-8.682
				l15.671-15.666c2.142-2.135,5.502-2.367,7.895-0.663l0.274,0.193l0.484,0.426l15.415,15.403c2.391,2.398,2.391,6.285,0,8.684
				C144.141,138.584,140.25,138.584,137.841,136.19"/>
			<path clip-path="url(#SVGID_8_)" fill="#F68A28" d="M137.841,136.19l1.154-1.156l-7.654-7.664v29.772
				c0,2.494-2.021,4.502-4.524,4.502c-2.49,0-4.502-2.008-4.51-4.502v-29.751l-7.971,7.95c-0.874,0.878-2.021,1.304-3.182,1.304
				c-1.167,0-2.315-0.426-3.193-1.304c-0.894-0.901-1.324-2.042-1.331-3.193c0.007-1.163,0.437-2.302,1.331-3.188l-0.099,0.092
				l15.771-15.753c0.885-0.874,2.027-1.313,3.193-1.321c0.922,0,1.822,0.276,2.6,0.828l0.198,0.143l0.386,0.342l15.262,15.252
				l0.119,0.115c0.879,0.882,1.313,2.034,1.313,3.179c0,1.156-0.434,2.312-1.313,3.193h0.005c-0.892,0.883-2.042,1.322-3.199,1.322
				c-1.157,0-2.313-0.439-3.201-1.322v0.005l-2.308,2.306c1.52,1.515,3.521,2.279,5.509,2.279c1.99,0,3.987-0.765,5.5-2.288
				c1.524-1.516,2.284-3.504,2.284-5.495c0-1.98-0.76-3.97-2.284-5.48l-15.439-15.446l-0.517-0.458l-0.064-0.057l-0.353-0.25
				l-0.035-0.027l0.03,0.023c-1.335-0.953-2.924-1.427-4.493-1.417c-1.988-0.01-3.992,0.749-5.507,2.27l-15.67,15.653
				c-1.515,1.515-2.283,3.513-2.279,5.503c-0.004,1.989,0.764,3.987,2.279,5.504c1.523,1.51,3.526,2.267,5.506,2.262
				c1.98,0.005,3.985-0.752,5.494-2.258l2.386-2.386v21.872c0,4.306,3.492,7.761,7.783,7.77c4.301-0.009,7.781-3.464,7.794-7.77
				v-21.875l2.077,2.067l-0.042-0.038l0.042,0.043"/>
			<path clip-path="url(#SVGID_8_)" fill="#000E78" d="M10.915,195.778c0-2.02-0.04-3.685-0.159-5.304h3.157l0.208,3.24h0.074
				c0.97-1.866,3.246-3.686,6.483-3.686c2.723,0,6.93,1.616,6.93,8.35v11.714h-3.566v-11.311c0-3.162-1.172-5.792-4.538-5.792
				c-2.349,0-4.172,1.66-4.782,3.646c-0.161,0.448-0.242,1.055-0.242,1.66v11.797h-3.566V195.778z"/>
			<path clip-path="url(#SVGID_8_)" fill="#000E78" d="M51.179,200.118c0,7.255-5.029,10.417-9.766,10.417
				c-5.311,0-9.402-3.896-9.402-10.091c0-6.566,4.295-10.415,9.721-10.415C47.376,190.029,51.179,194.119,51.179,200.118
				 M35.615,200.32c0,4.295,2.476,7.541,5.96,7.541c3.402,0,5.955-3.202,5.955-7.62c0-3.324-1.66-7.537-5.876-7.537
				C37.442,192.704,35.615,196.591,35.615,200.32"/>
			<path clip-path="url(#SVGID_8_)" fill="#000E78" d="M55.22,206.438c1.056,0.689,2.921,1.423,4.7,1.423
				c2.59,0,3.816-1.296,3.816-2.922c0-1.699-1.019-2.634-3.653-3.605c-3.532-1.255-5.186-3.201-5.186-5.556
				c0-3.157,2.549-5.749,6.766-5.749c1.981,0,3.725,0.563,4.819,1.213l-0.889,2.592c-0.769-0.484-2.188-1.13-4.01-1.13
				c-2.113,0-3.286,1.213-3.286,2.674c0,1.621,1.173,2.346,3.729,3.321c3.403,1.295,5.145,3,5.145,5.916
				c0,3.442-2.673,5.877-7.332,5.877c-2.152,0-4.136-0.526-5.514-1.336L55.22,206.438z"/>
			<path clip-path="url(#SVGID_8_)" fill="#000E78" d="M80.368,195.778c0-2.02-0.042-3.685-0.16-5.304h3.121l0.157,3.157h0.127
				c1.093-1.862,2.921-3.603,6.154-3.603c2.678,0,4.702,1.616,5.555,3.932h0.083c0.602-1.098,1.373-1.955,2.187-2.556
				c1.18-0.896,2.473-1.376,4.338-1.376c2.593,0,6.444,1.7,6.444,8.508v11.556h-3.486v-11.113c0-3.763-1.379-6.037-4.251-6.037
				c-2.031,0-3.61,1.502-4.221,3.25c-0.16,0.481-0.278,1.128-0.278,1.782v12.118h-3.492v-11.754c0-3.122-1.381-5.396-4.091-5.396
				c-2.227,0-3.848,1.786-4.418,3.57c-0.198,0.527-0.286,1.133-0.286,1.739v11.841h-3.483V195.778z"/>
			<path clip-path="url(#SVGID_8_)" fill="#000E78" d="M131.956,200.118c0,7.255-5.032,10.417-9.768,10.417
				c-5.314,0-9.403-3.896-9.403-10.091c0-6.566,4.293-10.415,9.724-10.415C128.148,190.029,131.956,194.119,131.956,200.118
				 M116.389,200.32c0,4.295,2.475,7.541,5.96,7.541c3.401,0,5.952-3.202,5.952-7.62c0-3.324-1.655-7.537-5.871-7.537
				C118.215,192.704,116.389,196.591,116.389,200.32"/>
			<path clip-path="url(#SVGID_8_)" fill="#000E78" d="M136.801,190.475l3.846,11.023c0.654,1.782,1.177,3.403,1.582,5.023h0.126
				c0.444-1.62,1.011-3.241,1.656-5.023l3.811-11.023h3.734l-7.701,19.618h-3.403l-7.464-19.618H136.801z"/>
			<path clip-path="url(#SVGID_8_)" fill="#000E78" d="M155.821,200.931c0.089,4.822,3.161,6.803,6.729,6.803
				c2.551,0,4.1-0.443,5.433-1.011l0.605,2.558c-1.256,0.565-3.4,1.212-6.526,1.212c-6.035,0-9.645-3.972-9.645-9.887
				c0-5.92,3.492-10.575,9.202-10.575c6.404,0,8.104,5.631,8.104,9.236c0,0.729-0.076,1.299-0.118,1.664H155.821z M166.283,198.379
				c0.04-2.271-0.932-5.797-4.945-5.797c-3.61,0-5.192,3.32-5.477,5.797H166.283z"/>
			<path clip-path="url(#SVGID_8_)" fill="#000E78" d="M174.165,195.778c0-2.021-0.041-3.685-0.161-5.304h3.123l0.154,3.156h0.125
				c1.095-1.861,2.922-3.602,6.159-3.602c2.68,0,4.705,1.616,5.553,3.932h0.086c0.604-1.098,1.372-1.955,2.18-2.556
				c1.181-0.896,2.476-1.376,4.339-1.376c2.596,0,6.452,1.7,6.452,8.508v11.556h-3.491v-11.113c0-3.763-1.38-6.037-4.252-6.037
				c-2.029,0-3.611,1.502-4.22,3.25c-0.159,0.481-0.281,1.128-0.281,1.782v12.118h-3.488v-11.754c0-3.122-1.379-5.396-4.093-5.396
				c-2.227,0-3.848,1.786-4.414,3.57c-0.202,0.527-0.284,1.133-0.284,1.739v11.841h-3.486V195.778z"/>
			<path clip-path="url(#SVGID_8_)" fill="#000E78" d="M225.755,200.118c0,7.255-5.029,10.417-9.764,10.417
				c-5.314,0-9.403-3.896-9.403-10.092c0-6.565,4.293-10.414,9.72-10.414C221.946,190.029,225.755,194.118,225.755,200.118
				 M210.191,200.32c0,4.295,2.475,7.541,5.958,7.541c3.403,0,5.955-3.202,5.955-7.62c0-3.324-1.658-7.537-5.876-7.537
				C212.019,192.704,210.191,196.591,210.191,200.32"/>
			<path clip-path="url(#SVGID_8_)" fill="#000E78" d="M229.791,206.438c1.049,0.689,2.916,1.423,4.695,1.423
				c2.59,0,3.813-1.296,3.813-2.922c0-1.699-1.014-2.634-3.648-3.605c-3.53-1.255-5.19-3.201-5.19-5.556
				c0-3.157,2.556-5.749,6.769-5.749c1.984,0,3.728,0.563,4.824,1.213l-0.891,2.592c-0.771-0.484-2.187-1.13-4.014-1.13
				c-2.108,0-3.28,1.213-3.28,2.674c0,1.621,1.172,2.346,3.722,3.321c3.406,1.295,5.152,3,5.152,5.916
				c0,3.442-2.672,5.877-7.342,5.877c-2.147,0-4.133-0.526-5.512-1.336L229.791,206.438z"/>
			<path clip-path="url(#SVGID_8_)" fill="#000E78" d="M254.944,196.877c0-2.513-0.081-4.542-0.159-6.402h3.192l0.166,3.359h0.084
				c1.458-2.389,3.766-3.805,6.974-3.805c4.735,0,8.302,4.006,8.302,9.965c0,7.055-4.3,10.541-8.914,10.541
				c-2.596,0-4.863-1.138-6.04-3.083h-0.074v10.659h-3.53V196.877z M258.475,202.104c0,0.525,0.074,1.014,0.157,1.462
				c0.65,2.47,2.79,4.168,5.345,4.168c3.777,0,5.96-3.075,5.96-7.576c0-3.931-2.063-7.294-5.83-7.294
				c-2.436,0-4.706,1.738-5.396,4.412c-0.118,0.448-0.236,0.976-0.236,1.469V202.104z"/>
			<path clip-path="url(#SVGID_8_)" fill="#000E78" d="M295.774,200.118c0,7.255-5.026,10.417-9.765,10.417
				c-5.313,0-9.406-3.896-9.406-10.092c0-6.565,4.299-10.414,9.726-10.414C291.966,190.029,295.774,194.118,295.774,200.118
				 M280.21,200.32c0,4.295,2.476,7.541,5.96,7.541c3.401,0,5.952-3.202,5.952-7.62c0-3.324-1.657-7.537-5.873-7.537
				C282.035,192.704,280.21,196.591,280.21,200.32"/>
			<path clip-path="url(#SVGID_8_)" fill="#000E78" d="M300.298,196.591c0-2.31-0.039-4.295-0.158-6.116h3.116l0.117,3.849h0.169
				c0.889-2.633,3.04-4.294,5.426-4.294c0.404,0,0.69,0.037,1.015,0.119v3.364c-0.364-0.084-0.729-0.118-1.212-0.118
				c-2.517,0-4.302,1.901-4.782,4.58c-0.08,0.479-0.167,1.05-0.167,1.66v10.457h-3.523V196.591z"/>
			<path clip-path="url(#SVGID_8_)" fill="#000E78" d="M326.461,184.843v5.631h5.104v2.713h-5.104v10.581
				c0,2.428,0.686,3.808,2.67,3.808c0.936,0,1.625-0.123,2.065-0.241l0.165,2.674c-0.688,0.282-1.782,0.484-3.16,0.484
				c-1.661,0-3.001-0.526-3.849-1.498c-1.019-1.054-1.379-2.799-1.379-5.107v-10.7h-3.039v-2.713h3.039v-4.704L326.461,184.843z"/>
			<path clip-path="url(#SVGID_8_)" fill="#000E78" d="M339.566,184.962c0.035,1.216-0.856,2.187-2.271,2.187
				c-1.26,0-2.147-0.971-2.147-2.187c0-1.252,0.927-2.23,2.223-2.23C338.71,182.731,339.566,183.71,339.566,184.962
				 M335.587,190.474h3.576v19.618h-3.576V190.474z"/>
		</g>
	</g>
</g>
</svg>
