<?xml version="1.0" encoding="utf-8"?>
<!-- Generator: Adobe Illustrator 16.0.0, SVG Export Plug-In . SVG Version: 6.00 Build 0)  -->
<!DOCTYPE svg PUBLIC "-//W3C//DTD SVG 1.1//EN" "http://www.w3.org/Graphics/SVG/1.1/DTD/svg11.dtd">
<svg version="1.1" id="Capa_1" xmlns="http://www.w3.org/2000/svg" xmlns:xlink="http://www.w3.org/1999/xlink" x="0px" y="0px"
	 width="360px" height="240px" viewBox="0 0 360 240" enable-background="new 0 0 360 240" xml:space="preserve">
<g>
	<g>
		<path fill-rule="evenodd" clip-rule="evenodd" fill="#009FE3" d="M71.491,124.812c-18.938-32.479-61.708,0.206-45.979,44.261
			c-35.658-52.558,36.623-103.121,52.954-54.374C79.271,117.1,72.555,126.638,71.491,124.812z"/>
		<path fill-rule="evenodd" clip-rule="evenodd" fill="#009FE3" d="M43.467,77.896c-1.737,8.457,3.076,15.903,10.744,16.631
			c7.672,0.729,15.297-5.534,17.032-13.99c1.737-8.456-3.074-15.901-10.744-16.63C52.828,63.177,45.202,69.44,43.467,77.896z"/>
		<path fill-rule="evenodd" clip-rule="evenodd" fill="#AFCA0B" d="M79.917,99.045c-2.321-7.534,0.401-15.041,6.075-16.77
			c5.675-1.729,12.155,2.976,14.474,10.508c2.32,7.533-0.4,15.04-6.075,16.77C88.714,111.281,82.236,106.577,79.917,99.045z"/>
		<path fill-rule="evenodd" clip-rule="evenodd" fill="#0063AF" d="M39.68,126.206c-3.874-2.412-4.7-8.07-1.847-12.645
			c2.853-4.572,8.311-6.327,12.186-3.918c3.876,2.41,4.702,8.073,1.848,12.643C49.011,126.86,43.555,128.618,39.68,126.206z"/>
		<path fill="#0063AF" d="M31.455,135.104c7.072-9.05,21.204-10.083,33.032-2.967c-10.509-2.646-21.684,0.527-28.368,9.086
			c-4.318,5.526-6.005,12.33-5.279,19.026C26.189,151.698,26.082,141.98,31.455,135.104z"/>
		<path fill-rule="evenodd" clip-rule="evenodd" fill="#AFCA0B" d="M91.191,163.206c-14.782,1.81-26.721-8.582-26.662-23.202
			c0.059-14.621,12.089-27.939,26.872-29.744c14.785-1.808,26.719,8.58,26.665,23.203C118.005,148.082,105.974,161.4,91.191,163.206
			z M113.188,136.81c0.052-12.431-10.098-21.262-22.665-19.724c-12.566,1.535-22.794,12.856-22.844,25.288
			c-0.049,12.432,10.101,21.26,22.667,19.725C102.914,160.562,113.141,149.239,113.188,136.81z"/>
		<path fill-rule="evenodd" clip-rule="evenodd" fill="#009FE3" d="M70.23,135.477c0,0,9.918,12.262,30.708,9.685
			c0,0,15.51-3.104,20.482,5.134c0,0-19.019,6.978-35.595-0.566C79.913,147.469,74.713,142.717,70.23,135.477z"/>
		<path fill-rule="evenodd" clip-rule="evenodd" fill="#009FE3" d="M86.363,132.236c-2.912-3.087-7.997-4.171-11.353-2.423
			c-3.358,1.743-3.715,5.658-0.803,8.746c2.916,3.084,7.996,4.166,11.351,2.421C88.915,139.238,89.275,135.322,86.363,132.236z"/>
	</g>
	<g>
		<path fill-rule="evenodd" clip-rule="evenodd" fill="#0063AF" d="M156.995,139.014 M140.631,116.837h23.393l-0.013,0.21
			l-0.531,2.052c-0.471,0.946-1.197,1.588-2.025,2.014h-14.138c-6.21-0.284-7.317,4.564-7.317,4.564l-3.379,13.336h20.369
			l-0.729,2.704c-0.587,0.977-1.468,1.579-2.436,1.935h-18.369l-6.451,26.056h-3.159c-2.14-0.628-2.817-1.958-2.96-3.115
			l11.216-44.589C135.049,116.379,140.631,116.837,140.631,116.837z"/>
		<path fill-rule="evenodd" clip-rule="evenodd" fill="#0063AF" d="M205.43,159.312h-6.78l5.404-22.175
			c0.908-3.424,1.683-7.271,2.097-9.806h6.16l-1.224,6.888h0.161c3.642-4.309,9.018-6.719,14.893-6.719
			c4.72,0,10.098,2.091,10.098,8.493c0,1.396-0.334,3.363-0.746,4.946l-4.559,18.396c-4.63,0.018-5.785-1.904-5.958-3.476
			l3.649-14.726c0.248-1.144,0.498-2.603,0.498-3.934c0-3.044-1.576-5.324-6.29-5.324c-4.882,0-11.831,4.501-13.652,12.106
			L205.43,159.312z"/>
		<path fill-rule="evenodd" clip-rule="evenodd" fill="#0063AF" d="M276.469,157.317c1.818,1.077,5.623,2.028,9.928,2.093
			c8.522,0,15.305-3.615,15.305-10.077c0-3.489-2.978-6.152-7.448-8.119c-3.638-1.521-5.541-2.913-5.541-5.132
			c0-2.602,2.979-4.629,7.199-4.629c2.977,0,5.456,0.759,6.865,1.396l1.903-3.991c-1.49-0.766-4.716-1.526-8.275-1.526
			c-8.518,0-14.559,4.122-14.559,9.509c0,3.17,2.564,5.835,7.196,7.798c4.222,1.776,5.626,3.299,5.626,5.707
			c0,2.728-2.978,5.008-7.61,5.008c-3.31,0-6.783-1.017-8.602-1.9L276.469,157.317z"/>
		<path fill-rule="evenodd" clip-rule="evenodd" fill="#0063AF" d="M265.801,155.699c0.548-2.204,1.097-2.936,1.381-4.743h-0.164
			c-4.383,6.403-9.93,8.622-15.555,8.622c-7.114,0-11.5-4.311-11.5-10.143c0-10.715,10.261-21.936,27.632-21.936
			c3.808,0,8.026,0.506,10.755,1.141l-4.052,16.038c-1.287,5.171-2.932,11.056-2.885,14.633
			C266.954,159.235,265.919,157.257,265.801,155.699z M268.34,141.385c-1.901,8.177-8.688,13.883-14.479,13.883
			c-5.211,0-6.784-3.359-6.784-6.784c0-8.558,8.521-16.799,18.864-16.799c2.315,0,3.724,0.191,4.717,0.444L268.34,141.385z"/>
		<path fill-rule="evenodd" clip-rule="evenodd" fill="#0063AF" d="M331.711,155.699c0.549-2.204,1.089-3.104,1.37-4.91h-0.164
			c-4.388,6.402-9.93,8.621-15.553,8.621c-7.118,0-11.502-4.31-11.502-10.143c0-10.715,10.261-21.937,27.632-21.937
			c3.808,0,8.029,0.508,10.756,1.144l-4.053,16.037c-1.284,5.171-2.917,11.223-2.871,14.8
			C332.865,159.235,331.83,157.257,331.711,155.699z M334.242,141.214c-1.903,8.182-8.689,13.887-14.479,13.887
			c-5.213,0-6.786-3.361-6.786-6.786c0-8.559,8.521-16.797,18.862-16.797c2.316,0,3.724,0.188,4.715,0.441L334.242,141.214z"/>
		<path fill-rule="evenodd" clip-rule="evenodd" fill="#0063AF" d="M176.313,159.41c13.405,0,22.174-9.826,22.174-19.337
			c0-6.464-4.883-12.742-15.721-12.742c-12.987,0-22.171,9.32-22.171,19.463c0,6.909,5.625,12.616,15.637,12.616H176.313z
			 M176.978,155.227c-5.711,0-9.349-3.613-9.349-8.621c0-7.038,5.706-15.088,14.312-15.088c7.196,0,9.349,5.006,9.349,8.556
			c0,7.166-6.124,15.153-14.23,15.153H176.978z"/>
	</g>
	<g>
		<rect x="162.777" y="169.19" fill="#0063AF" width="78.432" height="6.961"/>
		<rect x="241.209" y="169.19" fill="#EE4044" width="95.927" height="6.961"/>
	</g>
</g>
</svg>
