<?xml version="1.0" encoding="utf-8"?>
<!-- Generator: Adobe Illustrator 16.0.0, SVG Export Plug-In . SVG Version: 6.00 Build 0)  -->
<!DOCTYPE svg PUBLIC "-//W3C//DTD SVG 1.1//EN" "http://www.w3.org/Graphics/SVG/1.1/DTD/svg11.dtd">
<svg version="1.1" id="Capa_1" xmlns="http://www.w3.org/2000/svg" xmlns:xlink="http://www.w3.org/1999/xlink" x="0px" y="0px"
	 width="360px" height="240px" viewBox="0 0 360 240" enable-background="new 0 0 360 240" xml:space="preserve">
<g>
	<g>
		<defs>
			<rect id="SVGID_1_" x="2.5" y="8.462" width="355" height="223.077"/>
		</defs>
		<clipPath id="SVGID_2_">
			<use xlink:href="#SVGID_1_"  overflow="visible"/>
		</clipPath>
		<path clip-path="url(#SVGID_2_)" fill="#746F71" d="M25.662,24.003l-4.347,17.773h10.823l-4.054-17.773H25.662z M17.784,56.984
			h-7.549l10.786-39.759h12.839l10.417,39.759h-8.652l-2.068-8.963H19.894L17.784,56.984z"/>
		<g clip-path="url(#SVGID_2_)">
			<defs>
				<rect id="SVGID_3_" x="2.5" y="8.462" width="355" height="223.077"/>
			</defs>
			<clipPath id="SVGID_4_">
				<use xlink:href="#SVGID_3_"  overflow="visible"/>
			</clipPath>
			<path clip-path="url(#SVGID_4_)" fill="#746F71" d="M65.179,37.311c0-3.409-2.891-4.297-5.127-4.297
				c-2.229,0-5.165,0.888-5.165,4.297c0,3.64,2.762,4.545,5.165,4.545C62.405,41.855,65.179,40.951,65.179,37.311 M58.925,55.337
				c-2.7,0.228-4.407,1.751-4.407,4.225c0,2.53,2.295,4.382,5.411,4.382c3.484,0,5.772-1.786,5.772-4.784
				C65.701,56.616,63.464,55.694,58.925,55.337 M74.671,28.123l-0.133,5.713c-1.354-0.045-3.458-0.354-5.411-0.992
				c1.291,1.176,2.641,2.64,2.888,4.529c0,7.059-7.019,9.908-11.89,9.908c-1.134,0-2.477-0.247-3.731-0.55
				c-0.876,0.303-1.405,0.833-1.405,1.597c0,3.116,18.313-0.537,18.313,10.296c0,6.786-6.481,10.486-13.713,10.486
				c-6.07,0-12.207-2.656-12.207-7.953c0-3.705,2.951-5.638,7.666-6.364c-3.59-0.414-7.181-1.52-7.181-4.889
				c0-2.398,2.237-4.173,5.482-4.409c-2.889-1.587-5.188-4.013-5.188-8.122c0-7.654,7.243-9.835,11.89-9.835
				C63.189,27.538,69.645,28.081,74.671,28.123"/>
			<path clip-path="url(#SVGID_4_)" fill="#746F71" d="M91.681,33.199c-3.83,0-5.43,3.465-5.43,6.874h10.55
				C96.801,36.376,95.676,33.199,91.681,33.199 M86.251,44.618c0,4.591,2.604,7.118,7.438,7.118c2.943,0,5.938-1.12,8.461-2.421
				l1.487,5.417c-2.429,1.317-6.358,2.819-10.897,2.819c-8.895,0-14.204-5.516-14.204-15.067c0-8.884,4.308-14.951,13.549-14.951
				c8.718,0,12.132,6.482,12.132,13.714v3.37H86.251z"/>
			<path clip-path="url(#SVGID_4_)" fill="#746F71" d="M127.959,56.984V39.832c0-4.343-1.662-6.399-5.193-6.399
				c-1.998,0-3.716,0.881-5.063,1.764v21.787H110V28.121h5.291l1.185,3.3c1.64-1.946,4.833-3.887,9.123-3.887
				c7.298,0,10.197,4.297,10.197,11.604v17.845H127.959z"/>
			<path clip-path="url(#SVGID_4_)" fill="#746F71" d="M165.041,55.04c-1.641,0.859-5.534,2.518-9.874,2.518
				c-8.594,0-13.78-4.872-13.78-15.012c0-9.426,5.186-15.011,13.713-15.011c3.833,0,7.122,0.774,9.882,2.36l-1.983,5.239
				c-2.072-1.227-4.708-1.766-7.254-1.766c-3.999,0-6.526,2.716-6.526,9.178c0,6.539,2.411,9.187,6.589,9.187
				c2.995,0,5.952-1.115,7.829-2.182L165.041,55.04z"/>
			<path clip-path="url(#SVGID_4_)" fill="#746F71" d="M172.288,16.349h7.769v7.014h-7.769V16.349z M172.531,56.984V33.67
				l-3.348-0.689v-4.859h11v28.863H172.531z"/>
			<path clip-path="url(#SVGID_4_)" fill="#746F71" d="M202.792,44.386h-4.769c-3.171,0-4.65,1.525-4.65,3.701
				c0,2.663,1.421,4.245,4.298,4.245c1.831,0,3.707-0.826,5.121-1.961V44.386z M204.984,56.984l-1.071-3.423
				c-1.468,2.005-4.338,3.997-8.413,3.997c-5.775,0-9.661-3.706-9.661-9.229c0-5.363,3.944-8.538,10.897-8.538h6.056v-1.482
				c0-3.71-2.112-4.876-5.056-4.876c-3.416,0-6.301,0.882-8.674,1.94l-1.921-5.478c2.893-1.23,6.821-2.36,11.342-2.36
				c8.199,0,11.717,3.789,11.717,11.126v18.324H204.984z"/>
			<path clip-path="url(#SVGID_4_)" fill="#746F71" d="M247.844,34.734c-1.181-0.717-2.99-1.417-5.249-1.417
				c-3.642,0-5.944,2.459-5.944,9.164c0,6.901,2.185,9.503,5.849,9.503c1.931,0,3.863-0.953,5.345-2.478V34.734z M248.563,30.372
				c-0.479-1.655-0.719-3.125-0.719-5.314v-8.709h7.655v40.637h-6.231l-0.897-3.182c-1.17,1.762-3.94,3.753-7.645,3.753
				c-6.533,0-11.775-4.7-11.775-15.009c0-9.535,5.419-15.011,12.415-15.011C244.485,27.538,246.965,28.605,248.563,30.372"/>
			<path clip-path="url(#SVGID_4_)" fill="#746F71" d="M274.46,33.199c-3.826,0-5.415,3.465-5.415,6.874h10.55
				C279.595,36.376,278.47,33.199,274.46,33.199 M269.045,44.618c0,4.591,2.581,7.118,7.415,7.118c2.943,0,5.946-1.12,8.476-2.421
				l1.48,5.417c-2.411,1.317-6.358,2.819-10.89,2.819c-8.888,0-14.178-5.516-14.178-15.067c0-8.884,4.282-14.951,13.545-14.951
				c8.692,0,12.117,6.482,12.117,13.714v3.37H269.045z"/>
			<path clip-path="url(#SVGID_4_)" fill="#746F71" d="M29.252,120.66c-11.179,0-17.193-7.425-17.193-20.654
				c0-12.369,5.944-20.255,17.193-20.255c5.423,0,10.309,1.169,13.546,3.338l-2.936,6.247c-2.074-1.589-5.673-2.781-9.778-2.781
				c-6.603,0-9.895,4.667-9.895,13.398c0,9.161,3.292,13.876,9.771,13.876c3.899,0,7.783-1.648,10.474-3.642l2.482,6.242
				C38.972,119.137,34.491,120.66,29.252,120.66"/>
			<path clip-path="url(#SVGID_4_)" fill="#746F71" d="M63.759,107.47h-4.768c-3.178,0-4.642,1.525-4.642,3.692
				c0,2.669,1.398,4.267,4.296,4.267c1.826,0,3.702-0.839,5.114-1.942V107.47z M65.952,120.072l-1.075-3.409
				c-1.464,1.992-4.362,4.001-8.419,4.001c-5.765,0-9.653-3.699-9.653-9.243c0-5.36,3.947-8.539,10.899-8.539h6.056v-1.468
				c0-3.701-2.116-4.903-5.069-4.903c-3.415,0-6.292,0.896-8.646,1.962l-1.942-5.479c2.876-1.251,6.827-2.36,11.352-2.36
				c8.189,0,11.729,3.771,11.729,11.126v18.311H65.952z"/>
			<path clip-path="url(#SVGID_4_)" fill="#746F71" d="M77.966,112.423V79.452h7.593v32.543c0,2.426,1.471,2.769,4.646,2.769v5.433
				c0,0-2.233,0.467-4.226,0.467C80.082,120.664,77.966,117.554,77.966,112.423"/>
			<path clip-path="url(#SVGID_4_)" fill="#746F71" d="M97.33,79.446h7.778v7.006H97.33V79.446z M97.559,120.072V96.766
				l-3.341-0.714v-4.83h11.007v28.85H97.559z"/>
			<path clip-path="url(#SVGID_4_)" fill="#746F71" d="M130.188,97.823c-1.184-0.705-3.001-1.413-5.234-1.413
				c-3.646,0-5.957,2.466-5.957,9.176c0,6.892,2.185,9.477,5.834,9.477c1.951,0,3.885-0.931,5.356-2.466V97.823z M130.888,93.457
				c-0.467-1.649-0.699-3.109-0.699-5.294v-8.716h7.652v40.625h-6.239l-0.883-3.179c-1.178,1.76-3.937,3.767-7.66,3.767
				c-6.525,0-11.764-4.71-11.764-15.012c0-9.535,5.407-15.015,12.426-15.015C126.827,90.633,129.298,91.681,130.888,93.457"/>
			<path clip-path="url(#SVGID_4_)" fill="#746F71" d="M160.405,107.47h-4.774c-3.172,0-4.643,1.525-4.643,3.692
				c0,2.669,1.398,4.267,4.283,4.267c1.839,0,3.722-0.839,5.135-1.942V107.47z M162.59,120.072l-1.066-3.409
				c-1.487,1.992-4.371,4.001-8.432,4.001c-5.753,0-9.653-3.699-9.653-9.243c0-5.36,3.943-8.539,10.904-8.539h6.062v-1.468
				c0-3.701-2.114-4.903-5.069-4.903c-3.421,0-6.298,0.896-8.66,1.962l-1.935-5.479c2.877-1.251,6.827-2.36,11.36-2.36
				c8.177,0,11.712,3.771,11.712,11.126v18.311H162.59z"/>
			<path clip-path="url(#SVGID_4_)" fill="#746F71" d="M192.509,97.823c-1.191-0.705-3.02-1.413-5.248-1.413
				c-3.654,0-5.957,2.466-5.957,9.176c0,6.892,2.167,9.477,5.823,9.477c1.936,0,3.885-0.931,5.382-2.466V97.823z M193.204,93.457
				c-0.471-1.649-0.695-3.109-0.695-5.294v-8.716h7.642v40.625h-6.239l-0.89-3.179c-1.186,1.76-3.959,3.767-7.653,3.767
				c-6.528,0-11.778-4.71-11.778-15.012c0-9.535,5.415-15.015,12.427-15.015C189.129,90.633,191.607,91.681,193.204,93.457"/>
			<path clip-path="url(#SVGID_4_)" fill="#746F71" d="M238.012,97.823c-1.186-0.705-3.01-1.413-5.231-1.413
				c-3.664,0-5.952,2.466-5.952,9.176c0,6.892,2.171,9.477,5.813,9.477c1.949,0,3.899-0.931,5.371-2.466V97.823z M238.717,93.457
				c-0.467-1.649-0.705-3.109-0.705-5.294v-8.716h7.651v40.625h-6.232l-0.89-3.179c-1.182,1.76-3.951,3.767-7.651,3.767
				c-6.523,0-11.78-4.71-11.78-15.012c0-9.535,5.411-15.015,12.423-15.015C234.655,90.633,237.128,91.681,238.717,93.457"/>
			<path clip-path="url(#SVGID_4_)" fill="#746F71" d="M264.631,96.302c-3.827,0-5.432,3.463-5.432,6.874h10.551
				C269.75,99.475,268.647,96.302,264.631,96.302 M259.199,107.693c0,4.602,2.612,7.137,7.439,7.137c2.929,0,5.941-1.117,8.476-2.41
				l1.465,5.417c-2.414,1.3-6.351,2.827-10.879,2.827c-8.892,0-14.196-5.533-14.196-15.078c0-8.883,4.305-14.952,13.546-14.952
				c8.71,0,12.117,6.483,12.117,13.716v3.342H259.199z"/>
			<path clip-path="url(#SVGID_4_)" fill="#746F71" d="M296.023,112.423V79.452h7.589v32.543c0,2.426,1.473,2.769,4.647,2.769v5.433
				c0,0-2.223,0.467-4.235,0.467C298.15,120.664,296.023,117.554,296.023,112.423"/>
			<path clip-path="url(#SVGID_4_)" fill="#746F71" d="M328.878,107.47h-4.768c-3.197,0-4.653,1.525-4.653,3.692
				c0,2.669,1.42,4.267,4.282,4.267c1.847,0,3.727-0.839,5.139-1.942V107.47z M331.06,120.072l-1.059-3.409
				c-1.48,1.992-4.367,4.001-8.421,4.001c-5.769,0-9.643-3.699-9.643-9.243c0-5.36,3.933-8.539,10.875-8.539h6.065v-1.468
				c0-3.701-2.115-4.903-5.065-4.903c-3.406,0-6.305,0.896-8.652,1.962l-1.942-5.479c2.892-1.251,6.816-2.36,11.368-2.36
				c8.191,0,11.724,3.771,11.724,11.126v18.311H331.06z"/>
			<polygon clip-path="url(#SVGID_4_)" fill="#746F71" points="13.369,183.168 13.369,143.434 37.781,143.434 37.781,149.952 
				21.079,149.952 21.079,159.746 33.859,159.746 33.255,166.566 21.079,166.566 21.079,176.751 37.781,176.751 37.781,183.168 			
				"/>
			<path clip-path="url(#SVGID_4_)" fill="#746F71" d="M59.279,160.906c-1.156-0.698-2.995-1.421-5.225-1.421
				c-3.656,0-5.951,2.494-5.951,9.2c0,6.875,2.174,9.462,5.842,9.462c1.934,0,3.877-0.918,5.334-2.452V160.906z M59.993,156.561
				c-0.464-1.652-0.714-3.119-0.714-5.313v-8.712h7.659v40.632h-6.239l-0.875-3.18c-1.178,1.758-3.944,3.763-7.666,3.763
				c-6.534,0-11.772-4.703-11.772-15.008c0-9.539,5.416-15.016,12.427-15.016C55.938,153.728,58.403,154.774,59.993,156.561"/>
			<path clip-path="url(#SVGID_4_)" fill="#746F71" d="M94.02,183.168l-1.17-3.529c-1.346,1.771-4.407,4.112-9.005,4.112
				c-7.192,0-10.484-4.006-10.484-11.948v-17.484h7.674v17.542c0,4.416,1.581,6.013,5.054,6.013c1.987,0,3.819-0.774,5.172-1.709
				v-21.846h7.835v28.85H94.02z"/>
			<path clip-path="url(#SVGID_4_)" fill="#746F71" d="M128.482,181.227c-1.648,0.892-5.526,2.524-9.889,2.524
				c-8.585,0-13.777-4.887-13.777-15.008c0-9.428,5.191-15.016,13.704-15.016c3.83,0,7.133,0.764,9.91,2.35l-1.993,5.23
				c-2.083-1.218-4.717-1.759-7.25-1.759c-4.006,0-6.545,2.717-6.545,9.194c0,6.538,2.428,9.194,6.597,9.194
				c3.013,0,5.944-1.122,7.816-2.175L128.482,181.227z"/>
			<path clip-path="url(#SVGID_4_)" fill="#746F71" d="M149.222,170.559h-4.771c-3.186,0-4.661,1.537-4.661,3.711
				c0,2.657,1.413,4.257,4.305,4.257c1.824,0,3.708-0.833,5.127-1.95V170.559z M151.393,183.168l-1.066-3.423
				c-1.458,2-4.363,4.006-8.417,4.006c-5.769,0-9.657-3.706-9.657-9.242c0-5.351,3.947-8.525,10.896-8.525h6.074v-1.484
				c0-3.708-2.126-4.886-5.072-4.886c-3.418,0-6.309,0.887-8.649,1.936l-1.957-5.472c2.891-1.233,6.834-2.354,11.374-2.354
				c8.175,0,11.714,3.755,11.714,11.14v18.305H151.393z"/>
			<path clip-path="url(#SVGID_4_)" fill="#746F71" d="M186.312,181.227c-1.634,0.892-5.541,2.524-9.904,2.524
				c-8.582,0-13.78-4.887-13.78-15.008c0-9.428,5.198-15.016,13.729-15.016c3.827,0,7.122,0.764,9.895,2.35l-2.008,5.23
				c-2.053-1.218-4.709-1.759-7.224-1.759c-4.01,0-6.548,2.717-6.548,9.194c0,6.538,2.42,9.194,6.592,9.194
				c2.994,0,5.952-1.122,7.842-2.175L186.312,181.227z"/>
			<path clip-path="url(#SVGID_4_)" fill="#746F71" d="M193.562,142.536h7.758v7.013h-7.758V142.536z M193.778,183.168v-23.323
				l-3.354-0.704v-4.822h11.021v28.85H193.778z"/>
			<path clip-path="url(#SVGID_4_)" fill="#746F71" d="M226.475,168.688c0-6.944-2.067-9.368-5.658-9.368
				c-3.59,0-5.598,2.465-5.598,9.368c0,6.696,1.839,9.421,5.598,9.421C224.584,178.108,226.475,175.561,226.475,168.688
				 M213.694,149.856l-0.758-4.426l14.885-4.183l1,5.641L213.694,149.856z M234.369,168.688c0,9.839-4.943,15.063-13.553,15.063
				c-8.647,0-13.525-5.17-13.525-15.063c0-8.479,4.693-14.963,13.525-14.963C229.521,153.725,234.369,160.208,234.369,168.688"/>
			<path clip-path="url(#SVGID_4_)" fill="#746F71" d="M258.03,183.168v-17.126c0-4.364-1.655-6.429-5.18-6.429
				c-2,0-3.715,0.887-5.065,1.786v21.769h-7.7v-28.85h5.298l1.178,3.288c1.641-1.933,4.819-3.879,9.116-3.879
				c7.298,0,10.196,4.297,10.196,11.594v17.847H258.03z"/>
			<rect x="5.234" y="208.936" clip-path="url(#SVGID_4_)" fill="#1C56A3" width="147.225" height="14.717"/>
			<rect x="152.459" y="208.936" clip-path="url(#SVGID_4_)" fill="#E52A16" width="202.305" height="14.717"/>
		</g>
	</g>
</g>
</svg>
