<?xml version="1.0" encoding="utf-8"?>
<!-- Generator: Adobe Illustrator 16.0.0, SVG Export Plug-In . SVG Version: 6.00 Build 0)  -->
<!DOCTYPE svg PUBLIC "-//W3C//DTD SVG 1.1//EN" "http://www.w3.org/Graphics/SVG/1.1/DTD/svg11.dtd">
<svg version="1.1" id="Capa_1" xmlns="http://www.w3.org/2000/svg" xmlns:xlink="http://www.w3.org/1999/xlink" x="0px" y="0px"
	 width="360px" height="240px" viewBox="0 0 360 240" enable-background="new 0 0 360 240" xml:space="preserve">
<g>
	<rect x="160.083" y="100.383" fill="#1A171A" stroke="#1A171B" stroke-width="0.399" width="13.117" height="39.102"/>
	<path fill="none" stroke="#1A171B" stroke-width="0.399" d="M211.055,100.383h-28.777v39.102h13.117v-28.278h10.873
		c0,0,4.887-0.35,4.887,5.336v22.942h13.068v-25.535C224.263,112.896,224.621,100.782,211.055,100.383z"/>
	<path fill="#1A171A" stroke="#1A171B" stroke-width="0.399" d="M211.174,100.383h-28.775v39.102h13.116v-28.278h10.872
		c0,0,4.889-0.35,4.889,5.336v22.942h13.066v-25.535C224.383,112.896,224.741,100.782,211.174,100.383z"/>
	<path fill="#1A171A" stroke="#1A171B" stroke-width="0.399" d="M307.037,100.4L307,111.13h-5.43c0,0-4.947-0.181-4.947,4.223
		l-0.059,24.132h-12.971v-26.967c0,0-0.098-12.038,11.316-12.168L307.037,100.4z"/>
	<path fill="#1A171A" stroke="#1A171B" stroke-width="0.399" d="M262.361,87.752l0.031,12.631c0,0-13.498-0.066-14.463,0
		s-4.986-0.159-10.008,2.893c-5.744,3.491-5.52,10.508-5.52,10.508l0.066,12.136c-0.066,7.431,4.621,10.905,7.646,12.202
		c2.912,1.247,6.607,1.363,6.607,1.363h28.693V87.752H262.361z M262.625,129.044h-12.834c0,0-4.189,0.267-4.455-3.856v-9.376
		c0,0-0.266-4.589,4.322-4.589h12.967V129.044z"/>
	<path fill="#1A171A" stroke="#1A171B" stroke-width="0.399" d="M343.967,100.383c0,0-13.5-0.066-14.465,0
		s-4.986-0.159-10.008,2.893c-5.744,3.491-5.52,10.508-5.52,10.508l0.066,12.136c-0.066,7.431,4.623,10.905,7.648,12.202
		c2.91,1.247,6.607,1.363,6.607,1.363h28.691v-39.102H343.967z M344.199,129.044h-12.836c0,0-4.189,0.267-4.455-3.856v-9.376
		c0,0-0.266-4.589,4.322-4.589h12.969V129.044z"/>
	<circle fill="#B1B2B3" cx="111.805" cy="118.471" r="6.251"/>
	<circle fill="#B1B2B3" cx="109.411" cy="135.494" r="6.251"/>
	<circle fill="#B1B2B3" cx="92.654" cy="137.489" r="6.251"/>
	<circle fill="#B1B2B3" cx="83.875" cy="123.392" r="6.251"/>
	<circle fill="#B1B2B3" cx="96.245" cy="113.15" r="6.251"/>
	<circle fill="#B1B2B3" cx="108.48" cy="101.58" r="6.251"/>
	<circle fill="#B1B2B3" cx="99.835" cy="86.55" r="6.251"/>
	<circle fill="#B1B2B3" cx="84.141" cy="75.379" r="6.251"/>
	<circle fill="#B1B2B3" cx="65.388" cy="69.261" r="6.251"/>
	<circle fill="#B1B2B3" cx="72.305" cy="86.685" r="6.251"/>
	<circle fill="#B1B2B3" cx="87.2" cy="98.521" r="6.251"/>
	<circle fill="#B1B2B3" cx="74.964" cy="109.427" r="6.251"/>
	<circle fill="#B1B2B3" cx="62.33" cy="98.521" r="6.251"/>
	<circle fill="#B1B2B3" cx="50.759" cy="85.088" r="6.251"/>
	<circle fill="#B1B2B3" cx="43.976" cy="70.856" r="6.251"/>
	<circle fill="#B1B2B3" cx="28.814" cy="79.103" r="6.251"/>
	<circle fill="#B1B2B3" cx="17.11" cy="92.004" r="6.251"/>
	<circle fill="#B1B2B3" cx="33.07" cy="93.999" r="6.251"/>
	<circle fill="#B1B2B3" cx="46.769" cy="102.111" r="6.251"/>
	<circle fill="#B1B2B3" cx="62.862" cy="121.929" r="6.251"/>
	<circle fill="#B1B2B3" cx="48.232" cy="117.54" r="6.251"/>
	<circle fill="#B1B2B3" cx="28.016" cy="109.692" r="6.251"/>
	<circle fill="#B1B2B3" cx="10.593" cy="107.964" r="6.251"/>
	<circle fill="#B1B2B3" cx="9.263" cy="125.386" r="6.251"/>
	<circle fill="#B1B2B3" cx="24.425" cy="126.184" r="6.251"/>
	<circle fill="#B1B2B3" cx="39.188" cy="129.242" r="6.251"/>
	<circle fill="#B1B2B3" cx="55.813" cy="138.553" r="6.251"/>
	<circle fill="#B1B2B3" cx="71.64" cy="134.43" r="6.251"/>
	<circle fill="#B1B2B3" cx="82.146" cy="148.395" r="6.251"/>
	<circle fill="#B1B2B3" cx="101.165" cy="150.921" r="6.251"/>
	<circle fill="#B1B2B3" cx="88.397" cy="162.758" r="6.251"/>
	<circle fill="#B1B2B3" cx="67.118" cy="153.98" r="6.251"/>
	<circle fill="#B1B2B3" cx="48.631" cy="152.783" r="6.251"/>
	<circle fill="#B1B2B3" cx="34.4" cy="144.005" r="6.251"/>
	<circle fill="#B1B2B3" cx="14.317" cy="141.878" r="6.251"/>
	<circle fill="#B1B2B3" cx="24.159" cy="155.975" r="6.251"/>
	<circle fill="#B1B2B3" cx="38.39" cy="166.084" r="6.251"/>
	<circle fill="#B1B2B3" cx="55.148" cy="170.738" r="6.251"/>
	<circle fill="#B1B2B3" cx="72.57" cy="169.542" r="6.251"/>
</g>
</svg>
