<?xml version="1.0" encoding="utf-8"?>
<!-- Generator: Adobe Illustrator 16.0.0, SVG Export Plug-In . SVG Version: 6.00 Build 0)  -->
<!DOCTYPE svg PUBLIC "-//W3C//DTD SVG 1.1//EN" "http://www.w3.org/Graphics/SVG/1.1/DTD/svg11.dtd">
<svg version="1.1" id="Capa_1" xmlns="http://www.w3.org/2000/svg" xmlns:xlink="http://www.w3.org/1999/xlink" x="0px" y="0px"
	 width="360px" height="240px" viewBox="0 0 360 240" enable-background="new 0 0 360 240" xml:space="preserve">
<g>
	<polygon fill="#C10C1D" points="1.618,146.066 358.383,146.066 358.383,93.934 1.618,93.934 1.618,146.066 	"/>
	<path fill="none" stroke="#FFFFFF" stroke-width="0.5743" stroke-miterlimit="3.864" d="M330.357,129.854
		c0-2.149,1.811-3.889,4.045-3.889c2.221,0,4.027,1.739,4.027,3.889c0,2.14-1.807,3.866-4.027,3.866
		C332.168,133.72,330.357,131.993,330.357,129.854L330.357,129.854z"/>
	<path fill="#FFFFFF" d="M38.857,118.201h0.413c4.1,0,5.851-1.593,6.39-5.659h1.623v14.289h-1.633
		c-0.204-1.695-0.571-4.069-2.218-5.099c-1.212-0.763-2.604-1.146-4.162-1.146h-0.413v7.673c0,1.294-0.229,2.427,1.026,3.059
		c0.423,0.224,1.027,0.348,1.845,0.348h1.485v1.557H26.017v-1.557h1.485c0.855,0,1.504-0.146,1.968-0.371
		c0.292-0.144,0.533-0.372,0.715-0.743c0.108-0.202,0.191-0.915,0.191-2.292v-17.404c0-1.286,0.229-2.438-1.017-3.065
		c-0.425-0.206-1.019-0.321-1.857-0.321h-1.485v-1.579h27.173v8.547h-1.825c-0.418-3.53-1.625-5.054-5.149-5.794
		c-0.873-0.186-2.527-0.286-5.011-0.286h-2.348V118.201L38.857,118.201z M311.609,122.608l4.113-3.501
		c0.582-0.458,2.143-1.558,2.143-2.526c0-0.826-1.986-0.912-2.492-0.964v-1.53h10.656v1.561c-0.938,0.042-1.814,0.107-2.686,0.509
		c-0.623,0.304-1.938,1.218-3.955,2.854l-1.953,1.663l4.746,6.08c2.066,2.595,3.242,3.994,3.57,4.264
		c0.648,0.559,1.338,0.626,2.141,0.68v1.526h-12.023v-1.557h0.469c0.242,0,0.766-0.014,0.932-0.289c0-0.114-0.176-0.572-0.852-1.436
		l-3.945-5.037l-0.863,0.744v3.186c0,2.366,0.045,2.645,2.328,2.875v1.514h-12.061v-1.514c0.67-0.066,1.568-0.106,2.059-0.648
		c0.113-0.13,0.277-0.762,0.277-2.227v-18.558c0-2.37-0.043-2.617-2.336-2.864v-1.522h9.732V122.608L311.609,122.608z
		 M291.852,117.366c1.625-1.973,3.674-3.843,6.402-3.843c1.871,0,3.266,1.062,3.266,3.035c0,0.951-0.279,1.766-0.871,2.357
		c-0.582,0.563-1.283,0.858-2.102,0.858c-1.938,0-2.063-0.873-3.299-1.497c-0.066-0.035-0.172-0.065-0.289-0.065
		c-0.35,0-0.701,0.108-1.043,0.339c-0.555,0.393-1.006,0.954-1.305,1.709c-0.475,1.206-0.729,2.544-0.729,4.026l0.031,4.186
		l0.016,1.101c0,0.777,0.066,1.151,0.109,1.247c0.461,0.901,1.84,0.823,2.695,0.856v1.547h-12.633v-1.526
		c0.58-0.044,1.637-0.076,2.039-0.545c0.186-0.213,0.377-0.996,0.377-2.637V118.49c0-1.116-0.057-1.721-0.148-1.909
		c-0.383-0.929-1.402-0.881-2.268-0.959v-1.535h9.729L291.852,117.366L291.852,117.366z M166.404,115.984
		c1.754-1.508,3.589-2.461,5.974-2.461c2.522,0,4.953,1.23,5.751,3.757c0.257,0.826,0.385,2.323,0.385,4.433v7.121
		c0,1.455,0.169,2.137,0.337,2.328c0.357,0.423,1.45,0.49,1.982,0.547v1.514h-11.86v-1.502c0.674-0.086,1.419-0.146,1.852-0.735
		c0.141-0.181,0.292-0.82,0.292-2.151v-8.151c0-1.537-0.068-2.386-0.194-2.688c-0.204-0.592-0.729-0.937-1.341-0.937
		c-1.052,0-2.119,0.665-3.178,2.228v9.548c0,2.183,0,2.633,2.126,2.887v1.502h-11.863v-1.514c0.673-0.066,1.572-0.106,2.051-0.648
		c0.125-0.114,0.281-0.749,0.281-2.227V118.49c0-2.378-0.03-2.627-2.332-2.873v-1.53h9.737V115.984L166.404,115.984z
		 M104.385,115.871c1.747-1.412,3.531-2.348,5.829-2.348c2.377,0,4.953,1.218,5.788,3.576c0.342,0.948,0.488,2.519,0.488,4.603
		v7.132c0,2.366,0.061,2.645,2.335,2.875v1.514H106.97v-1.502c0.657-0.086,1.366-0.159,1.83-0.687
		c0.155-0.207,0.304-0.869,0.304-2.2v-8.161c0-1.193,0.312-3.614-1.545-3.614c-0.5,0-1.015,0.146-1.522,0.463
		c-0.491,0.308-1.026,0.852-1.651,1.662v9.65c0,1.359,0.139,2.014,0.272,2.205c0.353,0.536,1.283,0.604,1.866,0.682v1.502H94.656
		v-1.514c0.667-0.066,1.566-0.106,2.059-0.648c0.108-0.13,0.267-0.762,0.267-2.227v-18.558c0-2.37-0.039-2.617-2.326-2.864v-1.522
		h9.729V115.871L104.385,115.871z M91.958,120.743h-1.536c-1.132-2.253-2.785-4.834-5.664-4.834c-0.717,0-1.835,0.445-1.835,1.309
		c0,0.204,0.094,0.442,0.337,0.707c0.443,0.474,1.757,1.354,4.046,2.647c2.6,1.479,5.793,3.268,5.793,6.701
		c0,2.419-1.551,4.604-3.714,5.641c-1.166,0.535-2.451,0.811-3.836,0.811c-1.112,0-2.543-0.295-4.295-0.873
		c-0.461-0.142-0.717-0.202-0.806-0.202c-0.531,0-0.808,0.584-1.007,0.986h-1.47l-0.445-7.47h1.561
		c0.644,1.566,1.449,2.968,2.849,3.967c1.172,0.82,2.244,1.197,3.206,1.197c0.893,0,2.113-0.438,2.113-1.497
		c0-1.543-2.577-2.708-3.593-3.281c-2.383-1.369-3.981-2.461-4.731-3.233c-1.101-1.144-1.674-2.424-1.674-3.834
		c0-1.547,0.637-2.926,1.868-4.132c1.26-1.248,3.047-1.829,5.296-1.829c1.254,0,2.441,0.264,3.597,0.81
		c0.392,0.188,0.667,0.263,0.818,0.263c0.636,0,0.9-0.544,1.266-0.992h1.417L91.958,120.743L91.958,120.743z M201.896,120.743
		h-1.539c-1.137-2.253-2.791-4.834-5.678-4.834c-0.709,0-1.836,0.445-1.836,1.309c0,0.204,0.09,0.442,0.355,0.707
		c0.432,0.474,1.748,1.354,4.033,2.647c2.611,1.479,5.791,3.268,5.791,6.701c0,4.105-3.799,6.451-7.551,6.451
		c-1.096,0-2.539-0.296-4.291-0.873c-0.463-0.142-0.725-0.202-0.805-0.202c-0.527,0-0.799,0.584-0.998,0.986h-1.48l-0.438-7.47
		h1.555c0.639,1.566,1.434,2.968,2.848,3.967c1.174,0.82,2.244,1.197,3.221,1.197c0.877,0,2.084-0.438,2.084-1.497
		c0-1.543-2.574-2.708-3.596-3.281c-2.359-1.369-3.971-2.461-4.713-3.233c-1.092-1.144-1.67-2.424-1.67-3.834
		c0-1.547,0.645-2.926,1.875-4.132c1.25-1.248,3.033-1.829,5.283-1.829c1.254,0,2.449,0.264,3.598,0.81
		c0.389,0.188,0.664,0.263,0.828,0.263c0.625,0,0.885-0.544,1.256-0.992h1.424L201.896,120.743L201.896,120.743z M270.293,123.279
		c-1.533,0.807-2.66,1.657-3.418,2.522c-0.555,0.649-0.803,1.259-0.803,1.829c0,0.45,0.182,0.852,0.623,1.243
		c0.273,0.252,0.707,0.408,1.342,0.408c0.598,0,1.348-0.282,2.256-0.919V123.279L270.293,123.279z M263.641,133.472
		c-2.381,0-4.777-1.435-4.777-4.049c0-1.583,0.809-2.956,2.322-4.132c1.451-1.138,4.502-2.617,9.107-4.401v-1.518
		c0-1.286,0.213-2.454-1.016-3.121c-0.43-0.227-0.914-0.342-1.469-0.342c-0.953,0-1.686,0.184-2.248,0.506
		c-0.334,0.193-0.371,0.339-0.371,0.42c0,0.075,0.076,0.287,0.498,0.687c0.639,0.597,1.025,1.255,1.025,1.951
		c0,1.869-1.883,2.751-3.506,2.751c-1.666,0-3.852-0.957-3.852-2.93c0-2.74,3.045-4.412,5.295-5.066
		c1.609-0.473,3.287-0.704,5.016-0.704c2.742,0,6.404,0.928,7.592,3.789c0.24,0.635,0.357,1.989,0.357,3.944v7.097
		c0,0.314-0.189,1.756,0.508,1.756c0.414,0,0.824-0.631,1.051-0.936l1.449,1.027c-1.609,2.008-3.088,3.271-5.771,3.271
		c-1.994,0-3.76-0.661-4.395-2.713C268.006,132.549,265.723,133.472,263.641,133.472 M244.348,118.881
		c0.281,0.008,0.508,0.021,0.674,0.021c3.604,0,5.34-1.784,5.34-5.373c0-3.763-1.893-5.252-5.527-5.252h-0.486V118.881
		L244.348,118.881z M244.348,128.092c0,1.317-0.23,2.688,1.15,3.271c0.43,0.184,1.334,0.303,2.754,0.303h0.453v1.557H231.9v-1.557
		h0.465c0.971,0,3.023,0.069,3.637-1.029c0.145-0.247,0.258-1.04,0.258-2.545v-17.067c0-1.289,0.227-2.686-1.131-3.265
		c-0.441-0.184-1.33-0.291-2.764-0.291H231.9v-1.579h14.027c4.494,0,7.826,0.673,9.893,2.104c2.047,1.423,3.105,3.239,3.105,5.439
		c0,4.278-3.648,6.575-7.424,7.326c-1.455,0.324-3.867,0.471-7.154,0.49V128.092L244.348,128.092z M185.023,112.625h-2.838
		l3.07-7.727h8.484L185.023,112.625L185.023,112.625z M142.934,116.38c-0.404,0.382-0.77,1.237-0.94,2.697
		c-0.17,1.465-0.256,3.496-0.256,6.121c0,1.368,0.106,2.642,0.305,3.843c0.241,1.303,1.054,2.453,2.489,2.453
		c0.614,0,1.074-0.131,1.44-0.402c0.498-0.362,0.842-0.891,1.014-1.596c0.29-1.183,0.433-3.637,0.433-7.414
		c0-1.588,0.133-4.907-1.498-6.01c-0.304-0.201-0.716-0.326-1.303-0.326C143.954,115.746,143.411,115.954,142.934,116.38
		 M149.935,114.786c3.401,1.729,5.174,5.104,5.174,8.856c0,2.667-0.804,4.94-2.427,6.771c-1.973,2.22-4.685,3.311-8.088,3.311
		c-3.319,0-5.954-0.997-7.812-3.033c-1.814-2.006-2.738-4.334-2.738-6.981c0-2.721,0.934-5.113,2.801-7.129
		c1.888-2.044,4.467-3.058,7.671-3.058C146.469,113.523,148.266,113.948,149.935,114.786 M130.244,128.995
		c0,2.418,0.325,2.572,2.606,2.69v1.537h-12.622v-1.547c0.758-0.023,1.668-0.023,2.272-0.599c0.148-0.146,0.335-0.733,0.335-2.082
		v-10.668c0-2.403-0.335-2.572-2.607-2.685v-1.556h10.016V128.995L130.244,128.995z M129.436,106.303
		c0.775,0.667,1.183,1.5,1.183,2.472c0,2.137-2.048,3.443-3.999,3.443c-1.953,0-3.981-1.312-3.981-3.443
		c0-2.137,2.028-3.456,3.981-3.456C127.71,105.318,128.661,105.641,129.436,106.303 M65.46,123.279
		c-1.525,0.807-2.647,1.657-3.41,2.522c-0.563,0.649-0.805,1.259-0.805,1.829c0,0.45,0.189,0.852,0.62,1.243
		c0.281,0.252,0.702,0.408,1.341,0.408c0.597,0,1.352-0.282,2.255-0.919V123.279L65.46,123.279z M58.796,133.472
		c-2.379,0-4.764-1.435-4.764-4.049c0-1.583,0.811-2.956,2.315-4.132c1.45-1.138,4.521-2.617,9.113-4.401v-1.518
		c0-1.286,0.221-2.454-1.024-3.121c-0.428-0.227-0.908-0.343-1.459-0.343c-0.954,0-1.686,0.185-2.24,0.507
		c-0.342,0.193-0.388,0.339-0.388,0.42c0,0.075,0.088,0.287,0.514,0.687c0.624,0.597,1.019,1.254,1.019,1.951
		c0,0.798-0.363,1.464-1.014,1.983c-0.663,0.525-1.5,0.768-2.482,0.768c-1.666,0-3.873-0.957-3.873-2.93
		c0-2.74,3.048-4.412,5.308-5.066c1.613-0.473,3.287-0.704,5.018-0.704c2.742,0,6.407,0.928,7.575,3.789
		c0.254,0.635,0.347,1.989,0.347,3.944v7.097c0,0.31-0.173,1.756,0.524,1.756c0.425,0,0.84-0.631,1.059-0.936l1.448,1.027
		c-1.598,2.008-3.083,3.271-5.774,3.271c-1.993,0-3.77-0.661-4.378-2.713C63.17,132.549,60.891,133.472,58.796,133.472"/>
	<path fill="#FFFFFF" d="M335.813,128.234c-0.141-0.195-0.342-0.349-0.6-0.442c-0.131-0.055-0.305-0.093-0.492-0.115
		c-0.193-0.021-0.396-0.041-0.619-0.041h-1.35v4.436h0.797v-1.722h0.568l1.205,1.722h0.975l-1.311-1.823v-0.009
		c0.352-0.106,0.621-0.268,0.781-0.489c0.176-0.211,0.262-0.473,0.262-0.777C336.029,128.679,335.965,128.429,335.813,128.234
		 M333.549,129.672v-1.358h0.594c0.164,0,0.311,0.018,0.439,0.027c0.113,0.022,0.209,0.043,0.283,0.081
		c0.121,0.045,0.201,0.12,0.252,0.208c0.045,0.099,0.068,0.204,0.068,0.327c0,0.129-0.023,0.26-0.098,0.363
		c-0.053,0.107-0.172,0.198-0.328,0.252c-0.082,0.034-0.203,0.063-0.32,0.064c-0.133,0.023-0.287,0.035-0.48,0.035H333.549
		L333.549,129.672z"/>
</g>
</svg>
