<?xml version="1.0" encoding="utf-8"?>
<!-- Generator: Adobe Illustrator 16.0.0, SVG Export Plug-In . SVG Version: 6.00 Build 0)  -->
<!DOCTYPE svg PUBLIC "-//W3C//DTD SVG 1.1//EN" "http://www.w3.org/Graphics/SVG/1.1/DTD/svg11.dtd">
<svg version="1.1" id="Capa_2" xmlns="http://www.w3.org/2000/svg" xmlns:xlink="http://www.w3.org/1999/xlink" x="0px" y="0px"
	 width="169.296px" height="52.492px" viewBox="0 0 169.296 52.492" enable-background="new 0 0 169.296 52.492"
	 xml:space="preserve">
<g>
	<g>
		<path fill="#FFFFFF" d="M82.54,17.285c-1.631-0.278-3.364-0.178-5.1,0.291c-1.766,0.472-3.222,1.314-4.322,2.5l-0.249,0.264
			l2.092,1.979l0.25-0.301c0.811-1.011,2.075-1.657,3.761-1.921c1.69-0.28,3.281-0.042,4.704,0.698
			c1.352,0.698,2.041,1.797,2.041,3.276v1.815c-1.229-0.484-2.563-0.789-3.966-0.893c-1.594-0.128-3.148,0.005-4.58,0.395
			c-1.465,0.402-2.703,1.208-3.683,2.396c-0.987,1.201-1.485,2.702-1.485,4.463c0,2.252,0.742,3.99,2.203,5.163
			c1.389,1.19,2.927,1.81,4.578,1.837c2.373,0.042,4.458,0.063,6.024,0.063c3.706,0,3.751-0.095,3.874-0.356l0.021-0.042
			l0.014-14.841c0-1.856-0.624-3.399-1.855-4.595C85.64,18.304,84.188,17.568,82.54,17.285z M85.716,28.791v7.666
			c-0.886,0.122-2.89,0.164-5.859,0.11c-1.425-0.027-2.614-0.397-3.524-1.103c-0.882-0.686-1.328-1.771-1.328-3.218
			c0-1.301,0.381-2.328,1.132-3.049c0.766-0.739,1.739-1.164,2.895-1.266c0.439-0.039,0.901-0.063,1.378-0.063
			c0.747,0,1.5,0.058,2.241,0.164C83.749,28.191,84.781,28.448,85.716,28.791z"/>
		<path fill="#FFFFFF" d="M100.979,36.617c-0.949,0-1.793-0.341-2.509-1.014c-0.938-0.871-1.415-2.014-1.415-3.398V20.401h4.562
			V17.4h-4.562v-4.634h-3.001v19.439c0,2.351,0.774,4.217,2.302,5.55c1.242,1.071,2.719,1.615,4.386,1.615
			c0.388,0,0.797-0.029,1.216-0.086l0.31-0.052V36.45l-0.426,0.08C101.537,36.589,101.248,36.617,100.979,36.617z"/>
		<path fill="#FFFFFF" d="M119.989,18.816c-1.651-1.24-3.607-1.868-5.813-1.868c-2.234,0-4.207,0.628-5.855,1.868
			c-1.557,1.172-2.523,2.921-2.523,4.562v8.378c0,2.914,0.778,4.799,2.523,6.113c1.645,1.234,3.611,1.857,5.855,1.857
			c1.649,0,3.203-0.366,4.621-1.092c1.436-0.743,2.486-1.813,3.116-3.187l0.139-0.317l-2.683-1.347l-0.155,0.349
			c-0.369,0.85-1,1.476-1.922,1.921c-0.923,0.443-1.97,0.673-3.116,0.673c-1.495,0-2.789-0.376-3.846-1.118
			c-1.011-0.703-1.514-1.739-1.491-3.077v-3.339h13.673v-5.039C122.513,21.87,121.663,20.076,119.989,18.816z M110.331,21.054
			c1.057-0.727,2.351-1.096,3.846-1.096c1.463,0,2.743,0.369,3.803,1.096c1.014,0.691,1.529,1.707,1.529,3.016v2.405h-10.669v-2.412
			C108.817,22.759,109.32,21.745,110.331,21.054z"/>
		<path fill="#FFFFFF" d="M141.882,19.813c-1.454-1.32-3.087-2.015-5.643-2.413c-0.452-0.067-0.927-0.103-1.402-0.103
			c-3.719,0-6.869,2.085-7.002,2.173l-0.087,0.058v19.676h3.004V21.479c1.425-0.879,2.492-1.226,3.775-1.226
			c0.48,0,1.005,0.047,1.652,0.148c1.727,0.267,3.235,1.002,4.032,1.969c1.059,1.279,1.176,3.264,1.176,4.06v12.774h2.998V25.568
			C144.269,23.245,143.353,21.149,141.882,19.813z"/>
		<path fill="#FFFFFF" d="M163.994,19.474c-1.214-1.17-2.667-1.906-4.317-2.188c-1.633-0.28-3.362-0.179-5.101,0.292
			c-1.764,0.469-3.22,1.312-4.321,2.498l-0.249,0.266l2.094,1.977l0.246-0.301c0.813-1.011,2.077-1.657,3.763-1.921
			c1.691-0.276,3.281-0.042,4.702,0.698c1.354,0.698,2.041,1.797,2.041,3.276v1.815c-1.227-0.484-2.559-0.789-3.964-0.893
			c-1.595-0.128-3.147,0.005-4.578,0.395c-1.465,0.402-2.706,1.208-3.687,2.396c-0.987,1.201-1.483,2.702-1.483,4.463
			c0,2.252,0.741,3.99,2.201,5.165c1.389,1.191,2.928,1.809,4.581,1.835c2.374,0.042,4.455,0.063,6.023,0.063
			c3.701,0,3.747-0.095,3.872-0.356l0.018-0.042l0.019-14.841C165.853,22.213,165.227,20.67,163.994,19.474z M162.851,28.791v7.666
			c-0.887,0.122-2.892,0.164-5.857,0.11c-1.427-0.024-2.616-0.397-3.528-1.103c-0.878-0.686-1.324-1.771-1.324-3.218
			c0-1.301,0.382-2.328,1.134-3.049c0.764-0.739,1.735-1.164,2.894-1.266c0.438-0.039,0.904-0.063,1.374-0.063
			c0.749,0,1.504,0.058,2.242,0.164C160.883,28.191,161.914,28.448,162.851,28.791z"/>
		<g>
			<path fill="#FFFFFF" d="M51.529,19.572c-1.25,1.607-2.317,5.592-2.317,7.727c0,5.93,1.771,9.236,3.685,11.929l0.058,0.081h13.806
				v-3.002H54.453c-1.176-2.025-2.471-4.868-2.239-8.995c0.085-1.53,0.789-4.687,1.498-5.678c0.725-1.007,1.718-1.497,3.042-1.497
				h10.006V17.13H56.753C54.529,17.13,52.77,17.954,51.529,19.572z"/>
		</g>
	</g>
	<g>
		<g>
			<path fill="#77DDFD" d="M34.802,21.643l1.591-1.598c0.229-0.232,0.605-0.232,0.837,0l8.345,8.34l0,0
				c0.11,0.111,0.173,0.262,0.176,0.421c0,0.068-0.012,0.139-0.038,0.2l-11.078-6.979C34.638,21.887,34.695,21.751,34.802,21.643z"
				/>
			<path fill="#04B4FD" d="M37.279,37.564c-0.071,0.074-0.157,0.123-0.249,0.149c-0.056,0.015-0.114,0.024-0.175,0.024L24.24,37.74
				c-0.125-0.002-0.249-0.043-0.352-0.118l1.555-3.331h10.227l5.466-5.484l-6.329-6.324c-0.124-0.126-0.182-0.29-0.172-0.454
				l11.078,6.979c-0.029,0.082-0.075,0.157-0.136,0.217L37.279,37.564z"/>
			<path fill="#0DA9D1" d="M17.901,26.787l5.577,5.573l1.931,1.932h0.034l-1.555,3.331c-0.02-0.018-0.045-0.035-0.067-0.057
				l-2.769-2.77l-5.577-5.571c-0.231-0.232-0.232-0.607-0.002-0.838l1.591-1.599C17.292,26.555,17.667,26.555,17.901,26.787z"/>
		</g>
		<g>
			<polygon fill="none" points="23.127,22.817 22.566,22.687 22.998,22.687 			"/>
			<path fill="#77DDFD" d="M12.751,22.687l-5.66,5.66l6.367,6.367c0.092,0.091,0.092,0.237,0,0.326l-1.546,1.545
				c-0.09,0.092-0.235,0.092-0.325,0l-8.076-8.077c-0.09-0.088-0.09-0.235,0-0.323l8.073-8.073l10.981,2.575H12.751z"/>
			<polygon fill="#04B4FD" points="23.136,22.825 23.127,22.817 23.136,22.819 			"/>
			<path fill="#04B4FD" d="M11.751,20.039l12.022,0.002h0.211c0.063-0.007,0.128,0.018,0.175,0.065l8.078,8.077
				c0.09,0.091,0.09,0.235,0,0.323l-1.548,1.549c-0.087,0.089-0.233,0.089-0.325,0l-5.772-5.774l-1.456-1.457v-0.005l-0.009-0.002
				l-0.13-0.13h-0.432l-10.981-2.575l0.003-0.004C11.632,20.064,11.693,20.042,11.751,20.039z"/>
		</g>
	</g>
</g>
</svg>
