<svg width="30" height="30" viewBox="0 0 30 30" fill="none" xmlns="http://www.w3.org/2000/svg">
<g clip-path="url(#clip0_124_1552)">
<path d="M29.24 21.59V7.65C29.24 3.42502 25.815 0 21.59 0L7.64999 0C3.42501 0 -9.53674e-06 3.42502 -9.53674e-06 7.65V21.59C-9.53674e-06 25.815 3.42501 29.24 7.64999 29.24H21.59C25.815 29.24 29.24 25.815 29.24 21.59Z" fill="white"/>
<path d="M22.7001 9.60985C22.1901 9.83985 21.6301 9.97985 21.0901 10.0699C21.3501 10.0299 21.7301 9.55985 21.8801 9.36985C22.1101 9.07985 22.3101 8.74985 22.4201 8.38985C22.4301 8.35985 22.4401 8.32985 22.4201 8.30985C22.3901 8.29985 22.3601 8.30985 22.3301 8.30985C21.7201 8.63985 21.0901 8.86985 20.4201 9.03985C20.3601 9.04985 20.3201 9.03985 20.2901 9.00985C20.2301 8.94985 20.1801 8.88985 20.1201 8.83985C19.8401 8.59985 19.5401 8.40985 19.1901 8.26985C18.7401 8.08985 18.2501 8.00985 17.7701 8.03985C17.3001 8.06985 16.8401 8.19985 16.4201 8.41985C16.0001 8.63985 15.6301 8.93985 15.3301 9.30985C15.0201 9.68985 14.8001 10.1399 14.6801 10.6099C14.5701 11.0699 14.5801 11.5199 14.6501 11.9799C14.6601 12.0599 14.6501 12.0699 14.5801 12.0599C11.9501 11.6699 9.78005 10.7299 8.01005 8.71985C7.93005 8.62985 7.89005 8.62985 7.83005 8.71985C7.06005 9.87985 7.43005 11.7399 8.40005 12.6599C8.53005 12.7799 8.66005 12.8999 8.80005 13.0199C8.75005 13.0299 8.11005 12.9599 7.53005 12.6599C7.45005 12.6099 7.41005 12.6399 7.41005 12.7299C7.41005 12.8599 7.41005 12.9699 7.43005 13.1099C7.58005 14.2799 8.39006 15.3699 9.51006 15.7999C9.64006 15.8599 9.79006 15.8999 9.93006 15.9299C9.68006 15.9899 9.41005 16.0299 8.69005 15.9699C8.60005 15.9499 8.56006 15.9999 8.60006 16.0799C9.15006 17.5699 10.3301 18.0099 11.2101 18.2699C11.3301 18.2899 11.4501 18.2899 11.5701 18.3199C11.5701 18.3299 11.5601 18.3299 11.5501 18.3399C11.2601 18.7899 10.2401 19.1199 9.77006 19.2899C8.91006 19.5899 7.97005 19.7299 7.06005 19.6399C6.91005 19.6199 6.88005 19.6199 6.84005 19.6399C6.80005 19.6599 6.84005 19.6999 6.88005 19.7399C7.06005 19.8599 7.25005 19.9699 7.44005 20.0699C8.02005 20.3799 8.62005 20.6199 9.25005 20.7899C12.5101 21.6899 16.1701 21.0299 18.6201 18.5999C20.5401 16.6899 21.2101 14.0599 21.2101 11.4299C21.2101 11.3299 21.3301 11.2699 21.4001 11.2199C21.9001 10.8399 22.3001 10.3999 22.6701 9.88985C22.7501 9.77985 22.7501 9.67985 22.7501 9.63985C22.7501 9.57985 22.7501 9.59985 22.6801 9.62985L22.7001 9.60985Z" fill="#0D2242"/>
</g>
<defs>
<clipPath id="clip0_124_1552">
<rect width="29.24" height="29.24" fill="white"/>
</clipPath>
</defs>
</svg>
